<svg width="80" height="80" viewBox="0 0 80 80" fill="none" xmlns="http://www.w3.org/2000/svg">
    <circle cx="40" cy="40" r="40" fill="#38383C"/>
    <path d="M52.7782 59.7087H27.1116C20.2366 59.7087 20.2366 55.8953 20.2366 52.8337V51.0003C20.2366 49.2403 21.6849 47.792 23.4449 47.792H56.4449C58.2049 47.792 59.6532 49.2403 59.6532 51.0003V52.8337C59.6532 55.8953 59.6532 59.7087 52.7782 59.7087ZM23.4449 50.542C23.1882 50.542 22.9866 50.7437 22.9866 51.0003V52.8337C22.9866 55.8403 22.9866 56.9587 27.1116 56.9587H52.7782C56.9032 56.9587 56.9032 55.8403 56.9032 52.8337V51.0003C56.9032 50.7437 56.7016 50.542 56.4449 50.542H23.4449Z" fill="#F8F097"/>
    <path d="M55.9868 50.542H23.9951C23.2435 50.542 22.6201 49.9187 22.6201 49.167V41.8337C22.6201 34.317 27.9551 27.717 35.2885 26.1587C36.3701 25.9203 37.5068 25.792 38.6618 25.792H41.3201C42.4935 25.792 43.6301 25.9203 44.7118 26.1587C52.0451 27.7353 57.3618 34.3353 57.3618 41.8337V49.167C57.3618 49.9187 56.7568 50.542 55.9868 50.542ZM25.3701 47.792H54.6118V41.8337C54.6118 35.6187 50.2118 30.1553 44.1251 28.8353C43.2268 28.6337 42.2918 28.542 41.3201 28.542H38.6618C37.7085 28.542 36.7735 28.6337 35.8751 28.8353C29.7885 30.137 25.3701 35.6003 25.3701 41.8337V47.792Z" fill="#F8F097"/>
    <path d="M35.5817 28.872C34.9767 28.872 34.4267 28.4687 34.2617 27.8637C34.1151 27.332 34.0417 26.8003 34.0417 26.2503C34.0417 22.9687 36.7184 20.292 40.0001 20.292C43.2817 20.292 45.9584 22.9687 45.9584 26.2503C45.9584 26.8003 45.8851 27.332 45.7384 27.8637C45.5551 28.5603 44.8584 29.0003 44.1251 28.8353C43.2267 28.6337 42.2917 28.542 41.3201 28.542H38.6617C37.7084 28.542 36.7734 28.6337 35.8751 28.8353C35.7834 28.8537 35.6917 28.872 35.5817 28.872ZM38.6617 25.792H41.3201C41.9434 25.792 42.5851 25.8287 43.1901 25.902C43.0251 24.2887 41.6501 23.042 40.0001 23.042C38.3501 23.042 36.9934 24.2887 36.8101 25.902C37.4334 25.8287 38.0384 25.792 38.6617 25.792Z" fill="#F8F097"/>
    <path d="M45.5 39.542H34.5C33.7483 39.542 33.125 38.9187 33.125 38.167C33.125 37.4153 33.7483 36.792 34.5 36.792H45.5C46.2517 36.792 46.875 37.4153 46.875 38.167C46.875 38.9187 46.2517 39.542 45.5 39.542Z" fill="#F8F097"/>
    </svg>
    