<svg width="80" height="80" viewBox="0 0 80 80" fill="none" xmlns="http://www.w3.org/2000/svg">
    <circle cx="40" cy="40" r="40" fill="#38383C"/>
    <path d="M41.9249 47.7921H38.4783C36.04 47.7921 34.0416 45.7388 34.0416 43.2088C34.0416 42.4571 34.665 41.8338 35.4166 41.8338C36.1683 41.8338 36.7916 42.4571 36.7916 43.2088C36.7916 44.2171 37.5433 45.0421 38.4783 45.0421H41.9249C42.6399 45.0421 43.2083 44.4004 43.2083 43.6121C43.2083 42.6221 42.9333 42.4754 42.31 42.2554L36.7916 40.3304C35.6183 39.9271 34.0416 39.0654 34.0416 36.3704C34.0416 34.0788 35.8566 32.1904 38.075 32.1904H41.5216C43.9599 32.1904 45.9583 34.2438 45.9583 36.7738C45.9583 37.5254 45.335 38.1488 44.5833 38.1488C43.8316 38.1488 43.2083 37.5254 43.2083 36.7738C43.2083 35.7654 42.4566 34.9404 41.5216 34.9404H38.075C37.36 34.9404 36.7916 35.5821 36.7916 36.3704C36.7916 37.3604 37.0666 37.5071 37.6899 37.7271L43.2083 39.6521C44.3816 40.0554 45.9583 40.9171 45.9583 43.6121C45.9583 45.9221 44.1433 47.7921 41.9249 47.7921Z" fill="#12B76A"/>
    <path d="M40 49.625C39.2483 49.625 38.625 49.0017 38.625 48.25V31.75C38.625 30.9983 39.2483 30.375 40 30.375C40.7517 30.375 41.375 30.9983 41.375 31.75V48.25C41.375 49.0017 40.7517 49.625 40 49.625Z" fill="#12B76A"/>
    <path d="M40 59.7087C29.1283 59.7087 20.2916 50.872 20.2916 40.0003C20.2916 29.1287 29.1283 20.292 40 20.292C40.7516 20.292 41.375 20.9153 41.375 21.667C41.375 22.4187 40.7516 23.042 40 23.042C30.65 23.042 23.0416 30.6503 23.0416 40.0003C23.0416 49.3503 30.65 56.9587 40 56.9587C49.35 56.9587 56.9583 49.3503 56.9583 40.0003C56.9583 39.2487 57.5816 38.6253 58.3333 38.6253C59.085 38.6253 59.7083 39.2487 59.7083 40.0003C59.7083 50.872 50.8716 59.7087 40 59.7087Z" fill="#12B76A"/>
    <path d="M56.5 32.2083H49.1666C48.415 32.2083 47.7916 31.585 47.7916 30.8333V23.5C47.7916 22.7483 48.415 22.125 49.1666 22.125C49.9183 22.125 50.5416 22.7483 50.5416 23.5V29.4583H56.5C57.2516 29.4583 57.875 30.0817 57.875 30.8333C57.875 31.585 57.2516 32.2083 56.5 32.2083Z" fill="#12B76A"/>
    <path d="M49.1666 32.208C48.8182 32.208 48.4699 32.0796 48.1949 31.8046C47.6632 31.273 47.6632 30.393 48.1949 29.8613L57.3616 20.6946C57.8932 20.163 58.7732 20.163 59.3049 20.6946C59.8366 21.2263 59.8366 22.1063 59.3049 22.638L50.1382 31.8046C49.8632 32.0796 49.5149 32.208 49.1666 32.208Z" fill="#12B76A"/>
    </svg>
    