<svg width="16" height="9" viewBox="0 0 16 9" fill="none" xmlns="http://www.w3.org/2000/svg">
    <path fill-rule="evenodd" clip-rule="evenodd" d="M15.6931 8.28709C15.6573 8.37354 15.6047 8.45465 15.5352 8.52541C15.532 8.52871 15.5287 8.53197 15.5254 8.5352C15.3901 8.66806 15.2046 8.75 15 8.75H9C8.58579 8.75 8.25 8.41421 8.25 8C8.25 7.58579 8.58579 7.25 9 7.25H13.1893L8 2.06066L5.03033 5.03033C4.73744 5.32322 4.26256 5.32322 3.96967 5.03033L0.46967 1.53033C0.176777 1.23744 0.176777 0.762563 0.46967 0.46967C0.762563 0.176777 1.23744 0.176777 1.53033 0.46967L4.5 3.43934L7.46967 0.46967C7.76256 0.176777 8.23744 0.176777 8.53033 0.46967L14.25 6.18934V3C14.25 2.58579 14.5858 2.25 15 2.25C15.4142 2.25 15.75 2.58579 15.75 3V8C15.75 8.10169 15.7298 8.19866 15.6931 8.28709Z" fill="#C31D1D"/>
    </svg>
    