<svg width="48" height="48" viewBox="0 0 48 48" fill="none" xmlns="http://www.w3.org/2000/svg">
    <rect width="48" height="48" rx="12" fill="#0B0B0C"/>
    <path d="M16.9999 30.2504C16.8099 30.2504 16.6199 30.1804 16.4699 30.0304C16.1799 29.7404 16.1799 29.2604 16.4699 28.9704L30.4699 14.9704C30.7599 14.6804 31.2399 14.6804 31.5299 14.9704C31.8199 15.2604 31.8199 15.7404 31.5299 16.0304L17.5299 30.0304C17.3799 30.1804 17.1899 30.2504 16.9999 30.2504Z" fill="#12B76A"/>
    <path d="M27.27 30.2505H17C16.59 30.2505 16.25 29.9105 16.25 29.5005V19.2305C16.25 18.8205 16.59 18.4805 17 18.4805C17.41 18.4805 17.75 18.8205 17.75 19.2305V28.7505H27.27C27.68 28.7505 28.02 29.0905 28.02 29.5005C28.02 29.9105 27.68 30.2505 27.27 30.2505Z" fill="#12B76A"/>
    <path d="M32.5 34.75H15.5C15.09 34.75 14.75 34.41 14.75 34C14.75 33.59 15.09 33.25 15.5 33.25H32.5C32.91 33.25 33.25 33.59 33.25 34C33.25 34.41 32.91 34.75 32.5 34.75Z" fill="#12B76A"/>
    </svg>
    