<svg width="48" height="48" viewBox="0 0 48 48" fill="none" xmlns="http://www.w3.org/2000/svg">
    <rect width="48" height="48" rx="12" fill="#0B0B0C"/>
    <path d="M32.5 34.75H15.5C15.09 34.75 14.75 34.41 14.75 34C14.75 33.59 15.09 33.25 15.5 33.25H32.5C32.91 33.25 33.25 33.59 33.25 34C33.25 34.41 32.91 34.75 32.5 34.75Z" fill="#F25A5A"/>
    <path d="M30.9999 30.2504C30.8099 30.2504 30.6199 30.1804 30.4699 30.0304L16.4699 16.0304C16.1799 15.7404 16.1799 15.2604 16.4699 14.9704C16.7599 14.6804 17.2399 14.6804 17.5299 14.9704L31.5299 28.9704C31.8199 29.2604 31.8199 29.7404 31.5299 30.0304C31.3799 30.1804 31.1899 30.2504 30.9999 30.2504Z" fill="#F25A5A"/>
    <path d="M17 26.52C16.59 26.52 16.25 26.18 16.25 25.77V15.5C16.25 15.09 16.59 14.75 17 14.75H27.27C27.68 14.75 28.02 15.09 28.02 15.5C28.02 15.91 27.68 16.25 27.27 16.25H17.75V25.77C17.75 26.18 17.41 26.52 17 26.52Z" fill="#F25A5A"/>
    </svg>
    