<svg width="16" height="9" viewBox="0 0 16 9" fill="none" xmlns="http://www.w3.org/2000/svg">
    <path fill-rule="evenodd" clip-rule="evenodd" d="M9 0.25C8.58579 0.25 8.25 0.585786 8.25 1C8.25 1.41421 8.58579 1.75 9 1.75H13.1893L8 6.93934L5.03033 3.96967C4.73744 3.67678 4.26256 3.67678 3.96967 3.96967L0.46967 7.46967C0.176777 7.76256 0.176777 8.23744 0.46967 8.53033C0.762563 8.82322 1.23744 8.82322 1.53033 8.53033L4.5 5.56066L7.46967 8.53033C7.76256 8.82322 8.23744 8.82322 8.53033 8.53033L14.25 2.81066V6C14.25 6.41421 14.5858 6.75 15 6.75C15.4142 6.75 15.75 6.41421 15.75 6V1C15.75 0.793702 15.6667 0.606858 15.5319 0.471263C15.5314 0.470731 15.5309 0.4702 15.5303 0.46967C15.5298 0.46914 15.5293 0.46861 15.5287 0.468082C15.4572 0.396963 15.3749 0.343239 15.2871 0.306909C15.1987 0.270239 15.1017 0.25 15 0.25H9Z" fill="#12B76A"/>
    </svg>
    