<svg width="20" height="21" viewBox="0 0 20 21" fill="none" xmlns="http://www.w3.org/2000/svg">
    <path d="M10.1307 18.1249C7.97624 18.1249 5.82183 17.7827 3.77837 17.0985C3.00167 16.8304 2.4099 16.2848 2.151 15.5728C1.88285 14.8609 1.97532 14.0749 2.40065 13.3722L3.46399 11.6061C3.68591 11.2363 3.88933 10.4966 3.88933 10.062V7.38977C3.88933 3.9501 6.69099 1.14844 10.1307 1.14844C13.5703 1.14844 16.372 3.9501 16.372 7.38977V10.062C16.372 10.4873 16.5754 11.2363 16.7973 11.6154L17.8514 13.3722C18.249 14.0379 18.323 14.8424 18.0548 15.5728C17.7867 16.3033 17.2042 16.8581 16.4737 17.0985C14.4395 17.7827 12.2851 18.1249 10.1307 18.1249ZM10.1307 2.5354C7.45844 2.5354 5.27629 4.70831 5.27629 7.38977V10.062C5.27629 10.737 4.9989 11.7356 4.65678 12.3181L3.59344 14.0842C3.39002 14.4263 3.33454 14.7869 3.45475 15.092C3.5657 15.4064 3.84309 15.6468 4.2222 15.7763C8.0872 17.0708 12.1834 17.0708 16.0484 15.7763C16.3812 15.6653 16.6401 15.4157 16.7603 15.0828C16.8805 14.7499 16.8528 14.3893 16.6679 14.0842L15.6045 12.3181C15.2532 11.7171 14.985 10.7277 14.985 10.0527V7.38977C14.985 4.70831 12.8121 2.5354 10.1307 2.5354Z" fill="white"/>
    <path d="M11.8501 2.78492C11.7853 2.78492 11.7206 2.77567 11.6559 2.75718C11.3877 2.68321 11.1288 2.62773 10.8792 2.59075C10.0933 2.48904 9.33505 2.54451 8.62307 2.75718C8.36417 2.8404 8.08678 2.75718 7.9111 2.56301C7.73541 2.36883 7.67994 2.09144 7.78165 1.84179C8.16075 0.870913 9.08539 0.23291 10.1395 0.23291C11.1936 0.23291 12.1182 0.861667 12.4973 1.84179C12.5898 2.09144 12.5436 2.36883 12.3679 2.56301C12.2292 2.71095 12.035 2.78492 11.8501 2.78492Z" fill="white"/>
    <path d="M10.1305 20.233C9.2151 20.233 8.32744 19.8632 7.68019 19.2159C7.03294 18.5687 6.66309 17.681 6.66309 16.7656H8.05005C8.05005 17.3112 8.27196 17.8475 8.66031 18.2358C9.04866 18.6242 9.58495 18.8461 10.1305 18.8461C11.277 18.8461 12.2109 17.9122 12.2109 16.7656H13.5979C13.5979 18.6796 12.0445 20.233 10.1305 20.233Z" fill="white"/>
    </svg>
    