<svg width="32" height="32" viewBox="0 0 32 32" fill="none" xmlns="http://www.w3.org/2000/svg">
<path d="M16.0001 30.3337C8.09342 30.3337 1.66675 23.907 1.66675 16.0003C1.66675 8.09366 8.09342 1.66699 16.0001 1.66699C23.9067 1.66699 30.3334 8.09366 30.3334 16.0003C30.3334 23.907 23.9067 30.3337 16.0001 30.3337ZM16.0001 3.66699C9.20008 3.66699 3.66675 9.20033 3.66675 16.0003C3.66675 22.8003 9.20008 28.3337 16.0001 28.3337C22.8001 28.3337 28.3334 22.8003 28.3334 16.0003C28.3334 9.20033 22.8001 3.66699 16.0001 3.66699Z" fill="#ABABB1"/>
<path d="M12.2266 20.7738C11.9733 20.7738 11.72 20.6805 11.52 20.4805C11.1333 20.0938 11.1333 19.4538 11.52 19.0671L19.0666 11.5205C19.4533 11.1338 20.0933 11.1338 20.48 11.5205C20.8666 11.9071 20.8666 12.5471 20.48 12.9338L12.9333 20.4805C12.7466 20.6805 12.48 20.7738 12.2266 20.7738Z" fill="#ABABB1"/>
<path d="M19.7733 20.7738C19.52 20.7738 19.2666 20.6805 19.0666 20.4805L11.52 12.9338C11.1333 12.5471 11.1333 11.9071 11.52 11.5205C11.9066 11.1338 12.5466 11.1338 12.9333 11.5205L20.48 19.0671C20.8666 19.4538 20.8666 20.0938 20.48 20.4805C20.28 20.6805 20.0266 20.7738 19.7733 20.7738Z" fill="#ABABB1"/>
</svg>
