<svg width="32" height="32" viewBox="0 0 32 32" fill="none" xmlns="http://www.w3.org/2000/svg">
<path d="M22.5332 25.3468C22.1198 25.3468 21.7065 25.2268 21.3465 24.9868L20.0665 24.1468C19.7065 23.9068 19.5332 23.4535 19.6532 23.0402C19.7465 22.7335 19.7865 22.3735 19.7865 21.9735V16.5468C19.7865 14.3735 18.4265 13.0135 16.2532 13.0135H7.19983C7.03983 13.0135 6.89317 13.0269 6.7465 13.0402C6.4665 13.0535 6.19984 12.9602 5.98651 12.7735C5.77318 12.5869 5.6665 12.3202 5.6665 12.0402V8.34684C5.6665 4.42684 8.41317 1.68018 12.3332 1.68018H23.6665C27.5865 1.68018 30.3332 4.42684 30.3332 8.34684V15.1468C30.3332 17.0801 29.6798 18.7868 28.4798 19.9601C27.5198 20.9335 26.1865 21.5602 24.6665 21.7468V23.2268C24.6665 24.0268 24.2265 24.7469 23.5332 25.1202C23.2132 25.2669 22.8665 25.3468 22.5332 25.3468ZM21.7332 22.8402L22.5998 23.3335C22.6798 23.2935 22.6798 23.2268 22.6798 23.2135V20.8001C22.6798 20.2535 23.1332 19.8001 23.6798 19.8001C25.0798 19.8001 26.2665 19.3602 27.0798 18.5335C27.9198 17.7069 28.3465 16.5335 28.3465 15.1335V8.3335C28.3465 5.4935 26.5198 3.66683 23.6798 3.66683H12.3465C9.5065 3.66683 7.67983 5.4935 7.67983 8.3335V11.0002H16.2665C19.5198 11.0002 21.7998 13.2802 21.7998 16.5335V21.9601C21.7865 22.2668 21.7732 22.5602 21.7332 22.8402Z" fill="url(#paint0_linear_1820_45472)"/>
<path d="M8.09318 30.3333C7.79985 30.3333 7.49318 30.2667 7.21318 30.12C6.58651 29.7867 6.19983 29.1467 6.19983 28.4267V27.4133C5.0265 27.2267 3.98651 26.7333 3.21318 25.96C2.19984 24.9466 1.6665 23.56 1.6665 21.96V16.5334C1.6665 13.52 3.63983 11.3067 6.57316 11.0267C6.78649 11.0134 6.9865 11 7.19983 11H16.2532C19.5065 11 21.7865 13.28 21.7865 16.5334V21.96C21.7865 22.5466 21.7198 23.0933 21.5732 23.5867C20.9732 25.9867 18.9332 27.4933 16.2532 27.4933H12.9332L9.15983 30C8.83983 30.2267 8.46651 30.3333 8.09318 30.3333ZM7.19983 13C7.03983 13 6.89317 13.0134 6.7465 13.0267C4.8265 13.2 3.6665 14.52 3.6665 16.5334V21.96C3.6665 23.0266 3.99984 23.92 4.62651 24.5466C5.23984 25.16 6.13316 25.4933 7.19983 25.4933C7.7465 25.4933 8.19983 25.9467 8.19983 26.4933V28.24L12.0665 25.6667C12.2265 25.56 12.4265 25.4933 12.6265 25.4933H16.2532C18.0132 25.4933 19.2532 24.6133 19.6398 23.0667C19.7332 22.7333 19.7865 22.36 19.7865 21.96V16.5334C19.7865 14.36 18.4265 13 16.2532 13H7.19983Z" fill="url(#paint1_linear_1820_45472)"/>
<defs>
<linearGradient id="paint0_linear_1820_45472" x1="5.6665" y1="1.68018" x2="31.9972" y2="3.70464" gradientUnits="userSpaceOnUse">
<stop stop-color="#FDCD9D"/>
<stop offset="1" stop-color="#F7EF82"/>
</linearGradient>
<linearGradient id="paint1_linear_1820_45472" x1="1.6665" y1="11" x2="23.1442" y2="12.6489" gradientUnits="userSpaceOnUse">
<stop stop-color="#FDCD9D"/>
<stop offset="1" stop-color="#F7EF82"/>
</linearGradient>
</defs>
</svg>
