<svg width="20" height="21" viewBox="0 0 20 21" fill="none" xmlns="http://www.w3.org/2000/svg">
<path d="M14.9999 6.82488C14.9749 6.82488 14.9582 6.82488 14.9332 6.82488H14.8915C13.3165 6.77488 12.1415 5.5582 12.1415 4.0582C12.1415 2.52487 13.3915 1.2832 14.9165 1.2832C16.4415 1.2832 17.6915 2.5332 17.6915 4.0582C17.6832 5.56654 16.5082 6.78321 15.0082 6.83321C15.0082 6.82487 15.0082 6.82488 14.9999 6.82488ZM14.9165 2.52487C14.0749 2.52487 13.3915 3.20821 13.3915 4.04988C13.3915 4.87488 14.0332 5.54154 14.8582 5.57488C14.8665 5.56654 14.9332 5.56654 15.0082 5.57488C15.8165 5.53321 16.4415 4.86654 16.4499 4.04988C16.4499 3.20821 15.7665 2.52487 14.9165 2.52487Z" fill="white"/>
<path d="M15.0083 12.9665C14.6833 12.9665 14.3583 12.9415 14.0333 12.8832C13.6916 12.8249 13.4666 12.4999 13.525 12.1582C13.5833 11.8165 13.9083 11.5915 14.25 11.6499C15.275 11.8249 16.3583 11.6332 17.0833 11.1499C17.475 10.8915 17.6833 10.5665 17.6833 10.2415C17.6833 9.91653 17.4666 9.59986 17.0833 9.34153C16.3583 8.85819 15.2583 8.66653 14.225 8.84986C13.8833 8.91653 13.5583 8.68319 13.5 8.34153C13.4416 7.99986 13.6666 7.67487 14.0083 7.61653C15.3666 7.37487 16.775 7.63319 17.775 8.29986C18.5083 8.79153 18.9333 9.49153 18.9333 10.2415C18.9333 10.9832 18.5166 11.6915 17.775 12.1915C17.0166 12.6915 16.0333 12.9665 15.0083 12.9665Z" fill="white"/>
<path d="M4.97496 6.82491C4.96663 6.82491 4.9583 6.82491 4.9583 6.82491C3.4583 6.77491 2.2833 5.55823 2.27496 4.05823C2.27496 2.5249 3.52496 1.2749 5.04997 1.2749C6.57497 1.2749 7.82496 2.5249 7.82496 4.0499C7.82496 5.55824 6.64996 6.77491 5.14996 6.82491L4.97496 6.19991L5.0333 6.82491C5.01663 6.82491 4.99163 6.82491 4.97496 6.82491ZM5.0583 5.57491C5.1083 5.57491 5.14997 5.5749 5.19997 5.58323C5.94163 5.5499 6.59163 4.88323 6.59163 4.05823C6.59163 3.21657 5.9083 2.53323 5.06663 2.53323C4.22497 2.53323 3.54163 3.21657 3.54163 4.05823C3.54163 4.8749 4.17496 5.53323 4.9833 5.58323C4.99163 5.5749 5.02496 5.57491 5.0583 5.57491Z" fill="white"/>
<path d="M4.96669 12.9665C3.94169 12.9665 2.95835 12.6915 2.20002 12.1915C1.46669 11.6999 1.04169 10.9915 1.04169 10.2415C1.04169 9.49986 1.46669 8.79153 2.20002 8.29986C3.20002 7.63319 4.60835 7.37487 5.96669 7.61653C6.30835 7.67487 6.53335 7.99986 6.47502 8.34153C6.41669 8.68319 6.09169 8.91653 5.75002 8.84986C4.71669 8.66653 3.62502 8.85819 2.89169 9.34153C2.50002 9.59986 2.29169 9.91653 2.29169 10.2415C2.29169 10.5665 2.50835 10.8915 2.89169 11.1499C3.61669 11.6332 4.70002 11.8249 5.72502 11.6499C6.06669 11.5915 6.39169 11.8249 6.45002 12.1582C6.50836 12.4999 6.28335 12.8249 5.94169 12.8832C5.61669 12.9415 5.29169 12.9665 4.96669 12.9665Z" fill="white"/>
<path d="M9.99987 13.0497C9.97487 13.0497 9.95821 13.0497 9.93321 13.0497H9.89154C8.31654 12.9997 7.14154 11.7831 7.14154 10.2831C7.14154 8.74972 8.39154 7.50806 9.91654 7.50806C11.4415 7.50806 12.6915 8.75806 12.6915 10.2831C12.6832 11.7914 11.5082 13.0081 10.0082 13.0581C10.0082 13.0497 10.0082 13.0497 9.99987 13.0497ZM9.91654 8.74973C9.07488 8.74973 8.39154 9.43306 8.39154 10.2747C8.39154 11.0997 9.03321 11.7664 9.85821 11.7997C9.86654 11.7914 9.93321 11.7914 10.0082 11.7997C10.8165 11.7581 11.4415 11.0914 11.4499 10.2747C11.4499 9.4414 10.7665 8.74973 9.91654 8.74973Z" fill="white"/>
<path d="M9.9998 19.1998C8.9998 19.1998 7.9998 18.9414 7.2248 18.4164C6.49147 17.9248 6.06647 17.2248 6.06647 16.4748C6.06647 15.7331 6.48313 15.0164 7.2248 14.5248C8.78313 13.4914 11.2248 13.4914 12.7748 14.5248C13.5081 15.0164 13.9331 15.7164 13.9331 16.4664C13.9331 17.2081 13.5165 17.9248 12.7748 18.4164C11.9998 18.9331 10.9998 19.1998 9.9998 19.1998ZM7.91647 15.5748C7.5248 15.8331 7.31647 16.1581 7.31647 16.4831C7.31647 16.8081 7.53313 17.1248 7.91647 17.3831C9.04147 18.1414 10.9498 18.1414 12.0748 17.3831C12.4665 17.1248 12.6748 16.7998 12.6748 16.4748C12.6748 16.1498 12.4581 15.8331 12.0748 15.5748C10.9581 14.8164 9.0498 14.8248 7.91647 15.5748Z" fill="white"/>
</svg>
