<svg width="12" height="12" viewBox="0 0 12 12" fill="none" xmlns="http://www.w3.org/2000/svg">
<path d="M6 0C4.81331 0 3.65328 0.351894 2.66658 1.01118C1.67989 1.67047 0.910851 2.60754 0.456725 3.7039C0.00259971 4.80025 -0.11622 6.00666 0.115291 7.17054C0.346802 8.33443 0.918247 9.40352 1.75736 10.2426C2.59648 11.0818 3.66557 11.6532 4.82946 11.8847C5.99335 12.1162 7.19975 11.9974 8.2961 11.5433C9.39246 11.0891 10.3295 10.3201 10.9888 9.33342C11.6481 8.34672 12 7.18669 12 6C11.997 4.40964 11.3638 2.88529 10.2393 1.76073C9.11471 0.63617 7.59036 0.0030496 6 0ZM8.85577 4.95L5.475 8.18077C5.3876 8.26299 5.27192 8.30843 5.15193 8.30769C5.09327 8.30853 5.03504 8.29775 4.98058 8.27596C4.92612 8.25418 4.87651 8.22182 4.83462 8.18077L3.14423 6.56538C3.09735 6.52448 3.05922 6.47451 3.03213 6.4185C3.00505 6.36248 2.98957 6.30157 2.98663 6.23941C2.98369 6.17726 2.99335 6.11516 3.01502 6.05683C3.0367 5.99851 3.06994 5.94517 3.11275 5.90002C3.15557 5.85487 3.20707 5.81885 3.26416 5.79411C3.32125 5.76937 3.38276 5.75643 3.44498 5.75607C3.5072 5.75571 3.56885 5.76793 3.62622 5.79201C3.6836 5.81608 3.73551 5.8515 3.77885 5.89615L5.15193 7.20577L8.22116 4.28077C8.3109 4.20247 8.42743 4.1619 8.54639 4.16753C8.66535 4.17316 8.77753 4.22455 8.85948 4.31097C8.94143 4.39739 8.9868 4.51214 8.98611 4.63123C8.98542 4.75032 8.93872 4.86454 8.85577 4.95Z" fill="#15AA2C"/>
</svg>
