<svg width="20" height="21" viewBox="0 0 20 21" fill="none" xmlns="http://www.w3.org/2000/svg">
<path d="M12.87 10.1799C11.981 10.1799 11.26 10.9009 11.26 11.7899C11.26 12.6789 11.981 13.3999 12.87 13.3999C13.759 13.3999 14.48 12.6789 14.48 11.7899C14.48 10.9009 13.759 10.1799 12.87 10.1799ZM12.87 12.3849C12.541 12.3849 12.275 12.1189 12.275 11.7899C12.275 11.4609 12.541 11.1949 12.87 11.1949C13.199 11.1949 13.465 11.4609 13.465 11.7899C13.465 12.1189 13.199 12.3849 12.87 12.3849ZM16.44 3.23242H12.73C12.73 3.24219 11.5 3.25428 11.5 3.25428L10.5 3.25242C9.95925 3.25242 9.37 3.23242 9.37 3.23242H5.66C5.35025 3.23242 5.1 3.48267 5.1 3.79242V7.29242H3.56C3.25025 7.29242 3 7.54267 3 7.85242V15.6924C3 16.0022 3.25025 16.2524 3.56 16.2524H9.44C9.74975 16.2524 10 16.0022 10 15.6924V15.4124H16.44C16.7498 15.4124 17 15.1622 17 14.8524V3.79242C17 3.48267 16.7498 3.23242 16.44 3.23242ZM9.23 4.35242H10.49H11.61H12.87V5.19242H9.23V4.35242ZM8.88 15.1324H4.12V11.0724H8.88V15.1324ZM8.88 9.95242H4.12V8.41242H8.88V9.95242ZM15.74 14.1524H10V7.85242C10 7.54267 9.74975 7.29242 9.44 7.29242H6.36V4.49242H8.11V6.31242H13.99V4.49242H15.74V14.1524ZM13.36 7.43242V9.11242C13.36 9.18942 13.423 9.25242 13.5 9.25242H14.34C14.417 9.25242 14.48 9.18942 14.48 9.11242V7.43242C14.48 7.35542 14.417 7.29242 14.34 7.29242H13.5C13.423 7.29242 13.36 7.35542 13.36 7.43242ZM11.4 9.25242H12.24C12.317 9.25242 12.38 9.18942 12.38 9.11242V8.13242C12.38 8.05542 12.317 7.99242 12.24 7.99242H11.4C11.323 7.99242 11.26 8.05542 11.26 8.13242V9.11242C11.26 9.18942 11.323 9.25242 11.4 9.25242Z" fill="white"/>
</svg>
