<svg width="20" height="20" viewBox="0 0 20 20" fill="none" xmlns="http://www.w3.org/2000/svg">
<path d="M13.529 6.87652L13.5644 6.84116L13.529 6.80581L12.6879 5.96464L12.6525 5.92929L12.6171 5.96464L8.83489 9.7469L8.79954 9.78225L8.83489 9.81761L9.67605 10.6588L9.71141 10.6941L9.74677 10.6588L13.529 6.87652ZM16.0583 5.96452L16.023 5.92941L15.9878 5.96464L9.71137 12.241L7.25306 9.78861L7.21771 9.75334L7.18239 9.78866L6.34123 10.6298L6.30587 10.6652L6.34123 10.7005L9.67605 14.0354L9.71141 14.0707L9.74677 14.0354L16.9056 6.87652L16.9411 6.84104L16.9055 6.80568L16.0583 5.96452ZM2.96477 10.6297L2.92916 10.6651L2.96464 10.7005L6.29947 14.0354L6.33483 14.0707L6.37018 14.0354L7.21134 13.1942L7.24667 13.1589L7.21138 13.1235L3.88252 9.78869L3.84729 9.75339L3.8119 9.78853L2.96477 10.6297Z" fill="white" stroke="white" stroke-width="0.1"/>
<circle cx="10" cy="10" r="9.35" stroke="white" stroke-width="1.3"/>
</svg>
