<svg width="23" height="22" viewBox="0 0 23 22" fill="none" xmlns="http://www.w3.org/2000/svg">
<path d="M11.8333 1C7.23512 1 3.33843 4.14626 2.1841 8.39158H1L2.52211 10.1305L4.5 8.39158H3.10034C4.22917 4.63308 7.71769 1.86947 11.8333 1.86947C16.8546 1.86947 20.9639 5.97874 20.9639 11C20.9639 16.0213 16.8546 20.1305 11.8333 20.1305C7.10331 20.1305 3.1875 16.4868 2.74745 11.8695H1.87372C2.31803 16.9651 6.625 21 11.8333 21C17.3329 21 21.8333 16.4996 21.8333 11C21.8333 5.50042 17.3329 1 11.8333 1Z" fill="white" stroke="white" stroke-width="0.4"/>
<path d="M10.3665 13.8784C10.0073 13.7955 9.73728 13.7083 9.55446 13.619L9.2207 14.3907C9.43541 14.4885 9.73728 14.5778 10.1263 14.6564C10.4686 14.7266 10.8937 14.7648 11.3954 14.7733V15.7831H12.2649V14.7351C12.452 14.7117 12.6306 14.6777 12.7964 14.6309C13.1471 14.5331 13.4448 14.3949 13.6914 14.2142C13.938 14.0335 14.1229 13.8167 14.2526 13.568C14.378 13.3171 14.4439 13.0344 14.4439 12.7219C14.4439 12.3392 14.344 12.0204 14.1463 11.7631C13.9486 11.5059 13.6999 11.2848 13.4001 11.102C13.1025 10.9171 12.7772 10.7555 12.4286 10.6173C12.3733 10.596 12.3223 10.5727 12.267 10.5514V8.00676C12.5987 8.01952 12.9091 8.04715 13.1854 8.10243C13.5383 8.17471 13.8083 8.24911 13.9911 8.32777L14.2887 7.55608C14.0655 7.45829 13.7551 7.37964 13.3597 7.31586C13.0281 7.26272 12.6582 7.23721 12.267 7.2287V6.2168H11.3976V7.26272C10.8661 7.32862 10.4324 7.47955 10.1029 7.72402C9.65012 8.05778 9.42478 8.51059 9.42478 9.08032C9.42478 9.48423 9.5247 9.81586 9.7224 10.0773C9.92223 10.3388 10.1688 10.5578 10.4686 10.7364C10.7534 10.9064 11.0659 11.051 11.3997 11.1722V13.9974C11.0234 13.9868 10.6769 13.9506 10.3665 13.8784ZM12.2692 11.525C12.3159 11.5463 12.367 11.5676 12.4137 11.5888C12.7113 11.7313 12.9601 11.8949 13.1599 12.0799C13.3597 12.2648 13.4575 12.5029 13.4575 12.7942C13.4575 13.0025 13.4086 13.1832 13.3087 13.3363C13.2088 13.4893 13.077 13.6169 12.9091 13.7168C12.7411 13.8167 12.5434 13.8911 12.3138 13.9358C12.3011 13.9379 12.2841 13.94 12.2713 13.9421V11.525H12.2692ZM10.713 9.70532C10.5153 9.52462 10.4154 9.29928 10.4154 9.02717C10.4154 8.74868 10.5472 8.50634 10.8087 8.30226C10.9618 8.18321 11.1616 8.10455 11.3997 8.05353V10.1581C11.1297 10.0242 10.898 9.87326 10.713 9.70532Z" fill="white" stroke="white" stroke-width="0.5"/>
</svg>
