<svg width="40" height="12" viewBox="0 0 40 12" fill="none" xmlns="http://www.w3.org/2000/svg">
<path fill-rule="evenodd" clip-rule="evenodd" d="M5.90909 0C2.64559 0 0 2.64559 0 5.90909C0 9.17259 2.64559 11.8182 5.90909 11.8182C9.17259 11.8182 11.8182 9.17259 11.8182 5.90909C11.8182 2.64559 9.17259 0 5.90909 0Z" fill="#15AA2C"/>
<path d="M7 4.5L3.5 8L2 6.5" stroke="white" stroke-linecap="round" stroke-linejoin="round"/>
<path d="M10 4.5L6.5 8L5 6.5" stroke="white" stroke-linecap="round" stroke-linejoin="round"/>
<path d="M19.5967 9.09C17.6867 9.09 16.9967 8.04 16.8667 6.82H17.7067C17.8167 7.67 18.1567 8.39 19.5967 8.39C20.5167 8.39 21.2267 7.85 21.2267 7.04C21.2267 6.23 20.8567 5.89 19.4967 5.67C17.9967 5.44 17.1067 4.97 17.1067 3.7C17.1067 2.6 18.0567 1.76 19.4067 1.76C20.8367 1.76 21.7267 2.46 21.8667 3.73H21.0867C20.9167 2.83 20.3967 2.46 19.4067 2.46C18.4267 2.46 17.9167 2.95 17.9167 3.62C17.9167 4.32 18.1767 4.68 19.6367 4.9C21.2267 5.15 22.0667 5.63 22.0667 6.98C22.0667 8.18 21.0167 9.09 19.5967 9.09ZM25.6363 9.09C24.1563 9.09 23.1063 8.05 23.1063 6.44V6.36C23.1063 4.78 24.1163 3.68 25.5563 3.68C26.7663 3.68 27.9063 4.41 27.9063 6.28V6.55H23.9663C24.0063 7.74 24.5763 8.4 25.6463 8.4C26.4563 8.4 26.9263 8.1 27.0363 7.49H27.8663C27.6863 8.54 26.8163 9.09 25.6363 9.09ZM23.9963 5.88H27.0563C26.9763 4.8 26.4163 4.37 25.5563 4.37C24.7063 4.37 24.1363 4.95 23.9963 5.88ZM31.3198 9.09C29.8398 9.09 28.7898 8.05 28.7898 6.44V6.36C28.7898 4.78 29.7998 3.68 31.2398 3.68C32.4498 3.68 33.5898 4.41 33.5898 6.28V6.55H29.6498C29.6898 7.74 30.2598 8.4 31.3298 8.4C32.1398 8.4 32.6098 8.1 32.7198 7.49H33.5498C33.3698 8.54 32.4998 9.09 31.3198 9.09ZM29.6798 5.88H32.7398C32.6598 4.8 32.0998 4.37 31.2398 4.37C30.3898 4.37 29.8198 4.95 29.6798 5.88ZM34.8634 9V3.77H35.6934V4.6C35.9334 4.11 36.5134 3.68 37.3734 3.68C38.4534 3.68 39.2134 4.27 39.2134 5.79V9H38.3834V5.73C38.3834 4.81 37.9934 4.4 37.1534 4.4C36.3834 4.4 35.6934 4.89 35.6934 5.83V9H34.8634Z" fill="#ABABB1"/>
</svg>
