<svg width="20" height="21" viewBox="0 0 20 21" fill="none" xmlns="http://www.w3.org/2000/svg">
<path d="M9.99997 19.0916C9.44164 19.0916 8.87497 18.9666 8.4333 18.7082L3.84997 16.0666C1.9833 14.8082 1.86664 14.6166 1.86664 12.6416V7.8249C1.86664 5.8499 1.97497 5.65824 3.8083 4.41657L8.42497 1.7499C9.29997 1.24157 10.675 1.24157 11.55 1.7499L16.15 4.3999C18.0166 5.65824 18.1333 5.8499 18.1333 7.8249V12.6332C18.1333 14.6082 18.025 14.7999 16.1916 16.0416L11.575 18.7082C11.125 18.9666 10.5583 19.0916 9.99997 19.0916ZM9.99997 2.6249C9.64997 2.6249 9.3083 2.69157 9.06664 2.83324L4.4833 5.48324C3.12497 6.3999 3.12497 6.3999 3.12497 7.8249V12.6332C3.12497 14.0582 3.12497 14.0582 4.51664 14.9999L9.06664 17.6249C9.5583 17.9082 10.45 17.9082 10.9416 17.6249L15.525 14.9749C16.875 14.0582 16.875 14.0582 16.875 12.6332V7.8249C16.875 6.3999 16.875 6.3999 15.4833 5.45824L10.9333 2.83324C10.6916 2.69157 10.35 2.6249 9.99997 2.6249Z" fill="white"/>
<path d="M10 13.3582C8.275 13.3582 6.875 11.9582 6.875 10.2332C6.875 8.50815 8.275 7.10815 10 7.10815C11.725 7.10815 13.125 8.50815 13.125 10.2332C13.125 11.9582 11.725 13.3582 10 13.3582ZM10 8.35815C8.96667 8.35815 8.125 9.19982 8.125 10.2332C8.125 11.2665 8.96667 12.1082 10 12.1082C11.0333 12.1082 11.875 11.2665 11.875 10.2332C11.875 9.19982 11.0333 8.35815 10 8.35815Z" fill="white"/>
</svg>
