<svg width="20" height="21" viewBox="0 0 20 21" fill="none" xmlns="http://www.w3.org/2000/svg">
<path d="M7.90014 17.4748C7.48348 17.4748 7.19181 17.3331 7.01681 17.1998C6.68348 16.9581 6.16681 16.3331 6.49181 14.9331L6.96679 12.8831C7.00846 12.7081 6.9168 12.3915 6.7918 12.2581L5.13347 10.5998C4.25847 9.72479 4.33346 8.96646 4.45013 8.59146C4.5668 8.21646 4.95013 7.55812 6.1668 7.34978L8.29181 6.99979C8.45014 6.97479 8.70847 6.78313 8.77513 6.64146L9.95014 4.29145C10.5168 3.15812 11.2668 2.99146 11.6668 2.99146C12.0668 2.99146 12.8168 3.15812 13.3835 4.29145L14.5585 6.64146C14.6335 6.78313 14.8835 6.97479 15.0418 6.99979L17.1668 7.34978C18.3835 7.54978 18.7668 8.21646 18.8835 8.59146C19.0001 8.96646 19.0751 9.72479 18.2001 10.5998L16.5418 12.2581C16.4168 12.3831 16.3251 12.7081 16.3668 12.8831L16.8418 14.9331C17.1668 16.3415 16.6501 16.9581 16.3168 17.1998C15.9835 17.4415 15.2418 17.7498 13.9918 17.0081L12.0001 15.8248C11.8335 15.7248 11.4835 15.7248 11.3168 15.8248L9.32514 17.0081C8.75014 17.3581 8.26681 17.4748 7.90014 17.4748ZM11.6668 4.24146C11.5335 4.24146 11.2918 4.39978 11.0668 4.84978L9.8918 7.19979C9.6418 7.70812 9.05014 8.14146 8.4918 8.23313L6.36681 8.58313C5.89181 8.66646 5.67514 8.84146 5.63348 8.97479C5.59181 9.10813 5.66679 9.37479 6.00846 9.71646L7.66681 11.3748C8.09181 11.7998 8.31681 12.5748 8.18347 13.1581L7.70847 15.2081C7.5668 15.7998 7.65846 16.1165 7.75012 16.1915C7.84179 16.2581 8.17513 16.2498 8.69179 15.9331L10.6918 14.7498C11.2501 14.4165 12.0918 14.4165 12.6418 14.7498L14.6335 15.9331C15.1585 16.2415 15.4918 16.2581 15.5835 16.1915C15.6751 16.1248 15.7668 15.8081 15.6251 15.2081L15.1501 13.1581C15.0168 12.5665 15.2335 11.7998 15.6668 11.3748L17.3251 9.71646C17.6668 9.37479 17.7418 9.09979 17.7001 8.97479C17.6585 8.84979 17.4418 8.66646 16.9668 8.58313L14.8418 8.23313C14.2835 8.14146 13.6918 7.70812 13.4418 7.19979L12.2668 4.84978C12.0418 4.39978 11.8001 4.24146 11.6668 4.24146Z" fill="white"/>
<path d="M6.66669 5.0249H1.66669C1.32502 5.0249 1.04169 4.74157 1.04169 4.3999C1.04169 4.05824 1.32502 3.7749 1.66669 3.7749H6.66669C7.00835 3.7749 7.29169 4.05824 7.29169 4.3999C7.29169 4.74157 7.00835 5.0249 6.66669 5.0249Z" fill="white"/>
<path d="M4.16669 16.6914H1.66669C1.32502 16.6914 1.04169 16.4081 1.04169 16.0664C1.04169 15.7247 1.32502 15.4414 1.66669 15.4414H4.16669C4.50835 15.4414 4.79169 15.7247 4.79169 16.0664C4.79169 16.4081 4.50835 16.6914 4.16669 16.6914Z" fill="white"/>
<path d="M2.50002 10.8582H1.66669C1.32502 10.8582 1.04169 10.5748 1.04169 10.2332C1.04169 9.89149 1.32502 9.60815 1.66669 9.60815H2.50002C2.84169 9.60815 3.12502 9.89149 3.12502 10.2332C3.12502 10.5748 2.84169 10.8582 2.50002 10.8582Z" fill="white"/>
</svg>
