<svg width="20" height="21" viewBox="0 0 20 21" fill="none" xmlns="http://www.w3.org/2000/svg">
<path d="M14.1666 17.5247H5.83331C2.29164 17.5247 1.13331 16.4664 1.04998 13.1664C1.04998 12.9997 1.10831 12.8331 1.22498 12.7164C1.34164 12.5997 1.49998 12.5247 1.67498 12.5247C2.93331 12.5247 3.95831 11.4914 3.95831 10.2331C3.95831 8.97474 2.93331 7.94141 1.67498 7.94141C1.50831 7.94141 1.34998 7.87474 1.22498 7.74974C1.09998 7.62474 1.04164 7.46641 1.04998 7.29974C1.13331 3.99974 2.29164 2.94141 5.83331 2.94141H14.1666C17.8416 2.94141 18.9583 4.05807 18.9583 7.73307V12.7331C18.9583 16.4081 17.8416 17.5247 14.1666 17.5247ZM2.32498 13.7164C2.46664 15.8331 3.18331 16.2747 5.83331 16.2747H14.1666C17.15 16.2747 17.7083 15.7081 17.7083 12.7331V7.73307C17.7083 4.75807 17.15 4.19141 14.1666 4.19141H5.83331C3.18331 4.19141 2.46664 4.64141 2.32498 6.74974C3.96664 7.06641 5.20831 8.50807 5.20831 10.2331C5.20831 11.9581 3.96664 13.3997 2.32498 13.7164Z" fill="white"/>
<path d="M7.5 7.10807C7.15833 7.10807 6.875 6.82474 6.875 6.48307V3.56641C6.875 3.22474 7.15833 2.94141 7.5 2.94141C7.84167 2.94141 8.125 3.22474 8.125 3.56641V6.48307C8.125 6.82474 7.84167 7.10807 7.5 7.10807Z" fill="white"/>
<path d="M7.5 17.5248C7.15833 17.5248 6.875 17.2415 6.875 16.8998V13.9832C6.875 13.6415 7.15833 13.3582 7.5 13.3582C7.84167 13.3582 8.125 13.6415 8.125 13.9832V16.8998C8.125 17.2415 7.84167 17.5248 7.5 17.5248Z" fill="white"/>
<path d="M10.8667 13.2747C10.6667 13.2747 10.4667 13.2081 10.3 13.0914C10 12.8747 9.85 12.5081 9.91666 12.1414L10.0917 11.1497L9.36666 10.4414C9.1 10.1831 9.00833 9.79974 9.11666 9.44974C9.23333 9.09974 9.53333 8.84141 9.9 8.79141L10.9 8.64141L11.35 7.73307C11.5167 7.39974 11.85 7.19141 12.2167 7.19141C12.5917 7.19141 12.925 7.39974 13.0833 7.73307L13.5333 8.64141L14.5333 8.79141C14.9 8.84141 15.2 9.09974 15.3167 9.44974C15.4333 9.79974 15.3333 10.1831 15.0667 10.4414L14.3417 11.1497L14.5167 12.1414C14.5833 12.5081 14.4333 12.8747 14.1333 13.0914C13.8333 13.3081 13.4417 13.3331 13.1167 13.1664L12.225 12.6997L11.325 13.1664C11.1833 13.2414 11.025 13.2747 10.8667 13.2747ZM10.6417 9.94141L11.0667 10.3581C11.3 10.5831 11.4 10.8997 11.35 11.2164L11.25 11.7997L11.775 11.5247C12.0583 11.3747 12.3917 11.3747 12.675 11.5247L13.2 11.7997L13.1 11.2164C13.05 10.8914 13.15 10.5747 13.3833 10.3581L13.8083 9.94141L13.225 9.85807C12.9083 9.80807 12.6333 9.60807 12.4917 9.32474L12.2333 8.79141L11.975 9.32474C11.8333 9.60807 11.5583 9.80807 11.2417 9.85807L10.6417 9.94141Z" fill="white"/>
</svg>
