<svg width="20" height="21" viewBox="0 0 20 21" fill="none" xmlns="http://www.w3.org/2000/svg">
<path d="M10.0001 19.1916C9.44178 19.1916 8.87511 19.0499 8.37511 18.7582L3.42511 15.8999C2.42511 15.3166 1.80011 14.2416 1.80011 13.0832V7.38325C1.80011 6.22492 2.42511 5.14991 3.42511 4.56658L8.37511 1.70825C9.37511 1.12492 10.6168 1.12492 11.6251 1.70825L16.5751 4.56658C17.5751 5.14991 18.2001 6.22492 18.2001 7.38325V13.0832C18.2001 14.2416 17.5751 15.3166 16.5751 15.8999L11.6251 18.7582C11.1251 19.0499 10.5584 19.1916 10.0001 19.1916ZM10.0001 2.5249C9.65844 2.5249 9.30844 2.61658 9.00011 2.79158L4.05011 5.6499C3.43344 6.00824 3.05011 6.66658 3.05011 7.38325V13.0832C3.05011 13.7916 3.43344 14.4582 4.05011 14.8166L9.00011 17.6749C9.61678 18.0332 10.3834 18.0332 11.0001 17.6749L15.9501 14.8166C16.5668 14.4582 16.9501 13.7999 16.9501 13.0832V7.38325C16.9501 6.67492 16.5668 6.00824 15.9501 5.6499L11.0001 2.79158C10.6918 2.61658 10.3418 2.5249 10.0001 2.5249Z" fill="white"/>
<path d="M9.99996 10.0249C8.58329 10.0249 7.43329 8.8749 7.43329 7.45823C7.43329 6.04156 8.58329 4.8916 9.99996 4.8916C11.4166 4.8916 12.5666 6.04156 12.5666 7.45823C12.5666 8.8749 11.4166 10.0249 9.99996 10.0249ZM9.99996 6.1416C9.27496 6.1416 8.68329 6.73323 8.68329 7.45823C8.68329 8.18323 9.27496 8.77491 9.99996 8.77491C10.725 8.77491 11.3166 8.18323 11.3166 7.45823C11.3166 6.73323 10.725 6.1416 9.99996 6.1416Z" fill="white"/>
<path d="M13.3334 14.7415C12.9917 14.7415 12.7084 14.4582 12.7084 14.1165C12.7084 12.9665 11.4917 12.0249 10 12.0249C8.50835 12.0249 7.29169 12.9665 7.29169 14.1165C7.29169 14.4582 7.00835 14.7415 6.66669 14.7415C6.32502 14.7415 6.04169 14.4582 6.04169 14.1165C6.04169 12.2749 7.81669 10.7749 10 10.7749C12.1834 10.7749 13.9584 12.2749 13.9584 14.1165C13.9584 14.4582 13.675 14.7415 13.3334 14.7415Z" fill="white"/>
</svg>
