<svg width="5" height="10" viewBox="0 0 5 10" fill="none" xmlns="http://www.w3.org/2000/svg">
<path d="M0.455049 9.33501C0.360049 9.33501 0.265049 9.30001 0.190049 9.22501C0.0450488 9.08001 0.0450488 8.84001 0.190049 8.69501L3.45005 5.43501C3.69005 5.19501 3.69005 4.80501 3.45005 4.56501L0.190049 1.30501C0.0450488 1.16001 0.0450488 0.92001 0.190049 0.77501C0.335049 0.63001 0.575049 0.63001 0.720049 0.77501L3.98005 4.03501C4.23505 4.29001 4.38005 4.63501 4.38005 5.00001C4.38005 5.36501 4.24005 5.71001 3.98005 5.96501L0.720049 9.22501C0.645049 9.29501 0.550049 9.33501 0.455049 9.33501Z" fill="#ABABB1"/>
</svg>
