<svg width="18" height="18" viewBox="0 0 18 18" fill="none" xmlns="http://www.w3.org/2000/svg">
    <path d="M17.1 0H5.4C5.16139 0.000267987 4.93262 0.0951752 4.7639 0.2639C4.59517 0.432625 4.50027 0.661387 4.5 0.9V12.6C4.50027 12.8386 4.59517 13.0674 4.7639 13.2361C4.93262 13.4048 5.16139 13.4997 5.4 13.5H17.1C17.3386 13.4997 17.5674 13.4048 17.7361 13.2361C17.9048 13.0674 17.9997 12.8386 18 12.6V0.9C17.9997 0.661387 17.9048 0.432625 17.7361 0.2639C17.5674 0.0951752 17.3386 0.000267987 17.1 0ZM16.8 12.3H5.7V1.2H16.8V12.3Z" fill="#BFBFBF"/>
    <path d="M12.3 16.8H1.2V5.7H3.3V4.5H0.9C0.661387 4.50027 0.432625 4.59517 0.2639 4.7639C0.0951752 4.93262 0.000267987 5.16139 0 5.4V17.1C0.000267987 17.3386 0.0951752 17.5674 0.2639 17.7361C0.432625 17.9048 0.661387 17.9997 0.9 18H12.6C12.8386 17.9997 13.0674 17.9048 13.2361 17.7361C13.4048 17.5674 13.4997 17.3386 13.5 17.1V14.7H12.3V16.8Z" fill="#BFBFBF"/>
    </svg>
    