<svg width="21" height="21" viewBox="0 0 21 21" fill="none" xmlns="http://www.w3.org/2000/svg">
    <path d="M14.6667 18.2083H6.33333C3.29166 18.2083 1.54166 16.4583 1.54166 13.4167V7.58332C1.54166 4.54166 3.29166 2.79166 6.33333 2.79166H14.6667C17.7083 2.79166 19.4583 4.54166 19.4583 7.58332V13.4167C19.4583 16.4583 17.7083 18.2083 14.6667 18.2083ZM6.33333 4.04166C3.95 4.04166 2.79166 5.19999 2.79166 7.58332V13.4167C2.79166 15.8 3.95 16.9583 6.33333 16.9583H14.6667C17.05 16.9583 18.2083 15.8 18.2083 13.4167V7.58332C18.2083 5.19999 17.05 4.04166 14.6667 4.04166H6.33333Z" fill="#E3F1EC"/>
    <path d="M10.4998 11.225C9.79982 11.225 9.09149 11.0083 8.54982 10.5666L5.94148 8.48331C5.67482 8.26664 5.62482 7.87497 5.84149 7.60831C6.05815 7.34164 6.44982 7.29164 6.71649 7.50831L9.32481 9.59164C9.95815 10.1 11.0331 10.1 11.6665 9.59164L14.2748 7.50831C14.5415 7.29164 14.9415 7.33331 15.1498 7.60831C15.3665 7.87497 15.3248 8.27498 15.0498 8.48331L12.4415 10.5666C11.9082 11.0083 11.1998 11.225 10.4998 11.225Z" fill="#E3F1EC"/>
    </svg>
    