<svg width="16" height="16" viewBox="0 0 16 16" fill="none" xmlns="http://www.w3.org/2000/svg">
<path d="M7.53855 1.77223C7.70964 1.36238 8.29028 1.36238 8.46137 1.77223L9.92909 5.28815C9.99746 5.45195 10.1475 5.56722 10.3234 5.59102L14.1917 6.11457C14.6251 6.17324 14.7796 6.72089 14.4407 6.99744L11.4539 9.43479C11.3063 9.55528 11.2399 9.74923 11.2829 9.93491L12.2378 14.0615C12.3412 14.5083 11.8388 14.8469 11.4635 14.5835L8.2872 12.3542C8.11482 12.2332 7.88511 12.2332 7.71272 12.3542L4.53643 14.5835C4.16107 14.8469 3.65868 14.5083 3.76206 14.0615L4.71693 9.9349C4.75989 9.74923 4.69358 9.55528 4.54593 9.43479L1.55916 6.99744C1.22028 6.72089 1.37478 6.17324 1.80823 6.11457L5.67649 5.59102C5.85238 5.56722 6.00246 5.45195 6.07084 5.28815L7.53855 1.77223Z" fill="#F4E85B" stroke="#F4E85B" stroke-width="2" stroke-miterlimit="3.3292" stroke-linecap="round" stroke-linejoin="round"/>
</svg>
