<svg width="199" height="32" viewBox="0 0 199 32" fill="none" xmlns="http://www.w3.org/2000/svg">
<g clip-path="url(#clip0_234_2576)">
<path d="M23.7863 22.8567H7.93444L6.60826 20.573L5.2849 18.2865H0L1.32052 20.573L2.64387 22.8567L3.96722 25.1432L5.28774 27.4298L6.60826 29.7135L7.93444 32H13.2137L11.9017 29.7135L10.5811 27.4298H26.45L25.1068 25.1432L23.7863 22.8567Z" fill="white"/>
<path d="M35.6795 16L34.359 13.7135L33.0356 16L31.7151 18.2865L30.3946 16L29.0712 13.7135L27.7507 11.4298L26.4302 9.14324L25.1068 6.85671L23.7863 4.57019L22.4658 6.85671L21.1425 9.14324L22.4658 11.4298L23.7863 13.7135L25.1068 16L26.4302 18.2865L27.7507 20.573L29.0712 22.8567L27.7507 25.1432L26.4302 27.4298L27.7507 29.7134L29.0712 32L30.3946 29.7134L31.7151 27.4298L33.0356 25.1432L34.359 22.8567L35.6795 20.573L37 18.2865L35.6795 16Z" fill="white"/>
<path d="M10.5726 18.2865L11.9016 16L13.2221 13.7135L14.5455 11.4298L15.8688 9.14326L17.1894 6.85674L18.5127 4.57022H23.7863L25.1068 2.28652L26.4301 0H10.5613L9.24925 2.28652L7.9344 4.57022H13.2136L11.9016 6.85674L10.5811 9.14326L9.25775 11.4298L7.9344 13.7135L6.61388 16L5.29053 18.2865H10.5726Z" fill="white"/>
</g>
<path d="M54.7353 6.49377V26.4938H50.6242V6.49377H54.7353ZM60.8952 6.49377V9.7218H44.5605V6.49377H60.8952Z" fill="white"/>
<path d="M63.2464 6.49377H70.7124C72.2432 6.49377 73.5586 6.72271 74.6586 7.18059C75.7677 7.63846 76.6202 8.31612 77.216 9.21355C77.8119 10.111 78.1098 11.2145 78.1098 12.524C78.1098 13.5954 77.9264 14.5158 77.5598 15.285C77.2023 16.0451 76.6936 16.6815 76.0336 17.1943C75.3828 17.698 74.6174 18.1009 73.7374 18.4031L72.4312 19.0899H65.9413L65.9138 15.8756H70.7399C71.4641 15.8756 72.0645 15.7474 72.5412 15.491C73.0178 15.2346 73.3753 14.8775 73.6136 14.4196C73.8611 13.9617 73.9849 13.4306 73.9849 12.8262C73.9849 12.1852 73.8657 11.6311 73.6274 11.1641C73.3891 10.6971 73.027 10.3399 72.5412 10.0927C72.0553 9.84542 71.4458 9.7218 70.7124 9.7218H67.3713V26.4938H63.2464V6.49377ZM74.4386 26.4938L69.8737 17.5789L74.2324 17.5515L78.8523 26.3015V26.4938H74.4386Z" fill="white"/>
<path d="M85.6721 6.49377V26.4938H81.5609V6.49377H85.6721Z" fill="white"/>
<path d="M94.3792 26.4938H90.1993L90.2268 24.3372H94.3792C95.8092 24.3372 97.0008 24.0396 97.9541 23.4443C98.9074 22.8399 99.6224 21.9974 100.099 20.9169C100.585 19.8271 100.828 18.5542 100.828 17.0982V15.8756C100.828 14.731 100.69 13.7145 100.415 12.8262C100.14 11.9288 99.737 11.1733 99.2053 10.5597C98.6737 9.937 98.0229 9.46539 97.2529 9.14487C96.4921 8.82436 95.6167 8.6641 94.6267 8.6641H90.1168V6.49377H94.6267C95.9375 6.49377 97.1337 6.71355 98.2154 7.15312C99.297 7.58352 100.227 8.21081 101.007 9.03498C101.795 9.85 102.4 10.839 102.821 12.002C103.243 13.1559 103.454 14.4562 103.454 15.9031V17.0982C103.454 18.5451 103.243 19.85 102.821 21.013C102.4 22.1669 101.79 23.1513 100.993 23.9663C100.204 24.7813 99.2512 25.4086 98.1329 25.8482C97.0237 26.2786 95.7725 26.4938 94.3792 26.4938ZM91.6155 6.49377V26.4938H88.9618V6.49377H91.6155Z" fill="white"/>
<path d="M120.16 24.3372V26.4938H109.559V24.3372H120.16ZM110.095 6.49377V26.4938H107.441V6.49377H110.095ZM118.757 15.0927V17.2493H109.559V15.0927H118.757ZM120.022 6.49377V8.6641H109.559V6.49377H120.022Z" fill="white"/>
<path d="M138.846 6.49377V26.4938H136.178L126.1 11.068V26.4938H123.446V6.49377H126.1L136.219 21.9608V6.49377H138.846Z" fill="white"/>
<path d="M150.533 6.49377V26.4938H147.92V6.49377H150.533ZM156.968 6.49377V8.6641H141.499V6.49377H156.968Z" fill="white"/>
<path d="M162.784 6.49377V26.4938H160.13V6.49377H162.784Z" fill="white"/>
<path d="M174.595 6.49377V26.4938H171.982V6.49377H174.595ZM181.03 6.49377V8.6641H165.561V6.49377H181.03Z" fill="white"/>
<path d="M185.141 6.49377L190.338 16.535L195.549 6.49377H198.561L191.658 19.0212V26.4938H189.005V19.0212L182.102 6.49377H185.141Z" fill="white"/>
<defs>
<clipPath id="clip0_234_2576">
<rect width="37" height="32" fill="white"/>
</clipPath>
</defs>
</svg>
