<svg width="24" height="24" viewBox="0 0 24 24" fill="none" xmlns="http://www.w3.org/2000/svg">
    <g clip-path="url(#clip0_278_2502)">
        <path
            d="M12.0088 6.57135C11.8329 6.57135 11.659 6.58032 11.4876 6.59788C11.3162 6.61544 11.1471 6.64145 10.981 6.6756C10.8149 6.70975 10.6517 6.75204 10.4918 6.80195L10.0224 6.9743L9.57546 7.1901L9.15373 7.44671L8.75969 7.74144L8.39608 8.07173L8.06547 8.43502L7.77042 8.82862L7.51349 9.24996L7.29756 9.69635C7.23266 9.84903 7.17493 10.0056 7.12495 10.1654C7.07498 10.3252 7.03269 10.4883 6.99847 10.6542C6.96426 10.8202 6.93825 10.989 6.92063 11.1603C6.90301 11.3315 6.89417 11.5053 6.89417 11.681C6.89417 11.8567 6.90314 12.0304 6.92063 12.2017C6.93802 12.3716 6.964 12.5405 6.99847 12.7078C7.03269 12.8744 7.07498 13.0369 7.12495 13.1967C7.17493 13.3565 7.23259 13.5129 7.29756 13.6657L7.51349 14.1121L7.77042 14.5333L8.06547 14.927L8.39608 15.2903L8.75969 15.6206L9.15373 15.9153L9.57546 16.1719L10.0224 16.3877L10.4918 16.5601L10.981 16.6864C11.1484 16.7209 11.3175 16.7468 11.4876 16.7642C11.6607 16.7819 11.8347 16.7907 12.0088 16.7907C12.1847 16.7907 12.3586 16.7817 12.53 16.7642C12.7 16.7468 12.8691 16.7209 13.0365 16.6864L13.5258 16.5601L13.9952 16.3877L14.4421 16.1719L14.8638 15.9153L15.2579 15.6206L15.6216 15.2903L15.9522 14.927L16.2472 14.5333L16.5042 14.1121L16.7201 13.6657L16.8927 13.1967C16.9427 13.0369 16.985 12.8737 17.0192 12.7078L17.097 12.2016C17.1146 12.0304 17.1235 11.8566 17.1235 11.6809C17.1235 11.5052 17.1146 11.3315 17.097 11.1602C17.0796 10.9903 17.0536 10.8214 17.0192 10.6542C16.985 10.4876 16.9427 10.3252 16.8927 10.1653L16.7201 9.69628L16.5042 9.24989L16.2472 8.82855L15.9522 8.43496L15.6216 8.07167L15.2579 7.74138L14.8638 7.44664L14.4421 7.19003L13.9952 6.97424L13.5258 6.80188L13.0365 6.67553L12.53 6.59782C12.3568 6.58013 12.1829 6.57128 12.0088 6.57129V6.57135ZM12.0088 8.335C12.1251 8.335 12.2398 8.34077 12.3529 8.35218L12.686 8.4026L13.0079 8.48461L13.3161 8.59655L13.6091 8.73686L13.8846 8.90377L14.1421 9.0958L14.3796 9.31121L14.5952 9.5484L14.7874 9.80572L14.9545 10.0816L15.0948 10.3744C15.137 10.4746 15.1744 10.5773 15.207 10.6824C15.2395 10.7874 15.2669 10.8947 15.289 11.004C15.3111 11.1133 15.3274 11.2245 15.3394 11.3375L15.3566 11.6813C15.3566 11.7975 15.3508 11.9122 15.3394 12.0252C15.328 12.1382 15.3112 12.2494 15.289 12.3587C15.2667 12.4679 15.2393 12.5752 15.207 12.6803L15.0948 12.9882L14.9545 13.2811L14.7874 13.5569L14.5952 13.8143L14.3796 14.0515L14.1421 14.2669L13.8846 14.4589L13.6091 14.6258L13.3161 14.7661L13.0079 14.8781L12.686 14.9601L12.3529 15.0104C12.2385 15.0219 12.1237 15.0276 12.0087 15.0276C11.8938 15.0276 11.7789 15.0219 11.6645 15.0104L11.3314 14.9601C11.222 14.9379 11.1146 14.9105 11.0095 14.8781L10.7013 14.7661L10.4083 14.6258L10.1328 14.4589L9.87519 14.2669L9.63774 14.0515L9.42213 13.8143L9.22992 13.5569L9.06282 13.2811L8.9225 12.9882L8.81037 12.6803L8.72836 12.3587L8.67793 12.0252C8.66647 11.9109 8.66074 11.7961 8.66076 11.6813C8.66074 11.5665 8.66647 11.4517 8.67793 11.3375C8.68928 11.2245 8.70613 11.1132 8.72836 11.004C8.75037 10.8955 8.77776 10.7882 8.81044 10.6824L8.92256 10.3745L9.06288 10.0817L9.22998 9.80578L9.4222 9.54847L9.6378 9.31127L9.87525 9.09586L10.1328 8.90384L10.4083 8.73693L10.7013 8.59661C10.8022 8.55426 10.9051 8.5169 11.0096 8.48468L11.3315 8.40266C11.4409 8.3805 11.5522 8.36358 11.6647 8.35224C11.779 8.34078 11.8939 8.33505 12.0089 8.33507L12.0088 8.335Z"
            fill="#93939B" />
        <path
            d="M17.3308 5.11768C17.2902 5.11768 17.2496 5.11974 17.2092 5.12383C17.1688 5.12791 17.1286 5.13403 17.0888 5.14215C17.049 5.15027 17.0096 5.16038 16.9708 5.17246C16.9321 5.18454 16.8939 5.19857 16.8565 5.21449C16.8191 5.23043 16.7825 5.24824 16.7469 5.26786C16.7112 5.28744 16.6766 5.30881 16.6431 5.33187C16.6095 5.35496 16.5772 5.37972 16.5461 5.40607C16.5151 5.43238 16.4853 5.46025 16.4571 5.48955C16.4288 5.51887 16.4019 5.5496 16.3767 5.58162C16.3515 5.61365 16.3278 5.64692 16.3059 5.68132C16.284 5.71569 16.2638 5.75115 16.2454 5.78755C16.2269 5.82398 16.2103 5.86132 16.1956 5.89942C16.1809 5.93752 16.1681 5.97633 16.1572 6.01571C16.1463 6.05509 16.1374 6.095 16.1305 6.13527C16.1236 6.17554 16.1187 6.21612 16.1159 6.25688C16.1138 6.28575 16.1128 6.31469 16.1128 6.34363C16.1128 6.38452 16.1148 6.42539 16.1189 6.46607C16.1229 6.50674 16.129 6.54718 16.1371 6.58724C16.1451 6.62729 16.1552 6.66692 16.1672 6.70596C16.1792 6.74502 16.1931 6.78344 16.209 6.8211C16.2248 6.85876 16.2425 6.89561 16.262 6.9315C16.2814 6.96738 16.3027 7.00225 16.3256 7.036C16.3485 7.06972 16.3731 7.10227 16.3993 7.13352C16.4254 7.16479 16.4531 7.19473 16.4822 7.22322C16.5114 7.25169 16.5419 7.27867 16.5737 7.30407C16.6055 7.32949 16.6386 7.35329 16.6728 7.37539C16.707 7.39748 16.7422 7.41784 16.7784 7.43638C16.8146 7.45494 16.8517 7.47166 16.8895 7.48649C16.9274 7.5013 16.9659 7.51419 17.0051 7.52512C17.0442 7.53604 17.0838 7.54498 17.1239 7.55191C17.1639 7.55886 17.2042 7.5638 17.2447 7.56671C17.2734 7.56876 17.3021 7.56978 17.3309 7.56978C17.3715 7.5698 17.4121 7.56776 17.4525 7.5637C17.4929 7.55961 17.5331 7.5535 17.5729 7.54537C17.6127 7.53725 17.652 7.52714 17.6908 7.51507C17.7296 7.50298 17.7678 7.48895 17.8052 7.47303C17.8426 7.45712 17.8792 7.43932 17.9148 7.41973C17.9505 7.40012 17.9851 7.37874 18.0186 7.35565C18.0521 7.33259 18.0845 7.30784 18.1156 7.28152C18.1466 7.25518 18.1763 7.2273 18.2046 7.19797C18.2329 7.16865 18.2597 7.13792 18.285 7.1059C18.3102 7.07388 18.3338 7.0406 18.3558 7.0062C18.3777 6.97181 18.3979 6.93633 18.4163 6.89991C18.4348 6.86348 18.4514 6.82614 18.4661 6.78804C18.4808 6.74994 18.4936 6.71113 18.5045 6.67175C18.5153 6.63237 18.5242 6.59246 18.5311 6.55219C18.538 6.51192 18.5429 6.47134 18.5458 6.43058C18.5478 6.40171 18.5489 6.37277 18.5489 6.34382C18.5489 6.30296 18.5468 6.26211 18.5428 6.22145C18.5387 6.18078 18.5327 6.14034 18.5246 6.10029C18.5165 6.06023 18.5065 6.02061 18.4945 5.98156C18.4825 5.9425 18.4685 5.90408 18.4527 5.86642C18.4369 5.82876 18.4192 5.79191 18.3997 5.75603C18.3803 5.72015 18.359 5.68527 18.3361 5.65153C18.3131 5.61778 18.2885 5.58521 18.2623 5.55394C18.2362 5.52267 18.2085 5.49273 18.1794 5.46424C18.1503 5.43577 18.1198 5.40878 18.0879 5.38338C18.0561 5.35799 18.0231 5.33421 17.9889 5.31214C17.9547 5.29004 17.9194 5.26968 17.8832 5.25114C17.8471 5.23258 17.81 5.21586 17.7721 5.20103C17.7343 5.18622 17.6957 5.17333 17.6566 5.1624C17.6175 5.15146 17.5778 5.1425 17.5378 5.13555C17.4978 5.12862 17.4575 5.1237 17.417 5.12082C17.3883 5.11877 17.3596 5.11774 17.3308 5.11774V5.11768Z"
            fill="#93939B" />
        <path
            d="M11.0389 1.68476C10.4826 1.68386 9.98614 1.68617 9.5402 1.69244L8.34461 1.72448C7.99042 1.73986 7.67749 1.75991 7.3966 1.78586C7.25616 1.7988 7.12366 1.81328 6.99807 1.82924C6.87857 1.8443 6.75939 1.86184 6.64061 1.88184C6.52753 1.90106 6.42021 1.92182 6.31731 1.94438C6.21441 1.96693 6.11612 1.99128 6.02129 2.01742C5.92859 2.04298 5.83661 2.0711 5.74546 2.10174C5.65615 2.13185 5.56901 2.16376 5.48296 2.19785C5.31086 2.26602 5.14299 2.34252 4.97012 2.42825C4.83711 2.49424 4.71422 2.56107 4.59748 2.63181C4.48074 2.70254 4.37015 2.77725 4.26187 2.85862C4.15036 2.94283 4.04287 3.03225 3.93978 3.12657C3.83201 3.22473 3.72193 3.33269 3.60757 3.45334C3.46385 3.6041 3.33897 3.74468 3.22813 3.88262C3.17271 3.95157 3.12081 4.01974 3.07192 4.0883C3.02357 4.15586 2.97736 4.22492 2.93333 4.29538C2.88976 4.36522 2.8485 4.43634 2.80903 4.50951C2.76895 4.58394 2.73107 4.65953 2.69543 4.73619C2.62252 4.89279 2.55447 5.06142 2.48656 5.24967C2.43617 5.38883 2.39106 5.52985 2.3513 5.67242C2.31074 5.81812 2.27467 5.97054 2.24251 6.1354C2.21034 6.30026 2.18228 6.47755 2.15761 6.67361C2.13103 6.88852 2.10979 7.10406 2.09392 7.32003C2.07598 7.55748 2.06112 7.81877 2.04895 8.10959L2.02011 9.07657L2.00461 10.2553L2.00012 11.6801L2.01326 13.752L2.05426 15.3218L2.08585 15.9349L2.12532 16.443C2.13797 16.58 2.1538 16.7166 2.1728 16.8528C2.1901 16.9738 2.20868 17.0796 2.22867 17.1713C2.26923 17.3575 2.31719 17.5421 2.37245 17.7246C2.42535 17.8993 2.48585 18.0716 2.55377 18.241C2.62053 18.407 2.69358 18.567 2.77303 18.721C2.85247 18.8751 2.93833 19.0231 3.0306 19.1652C3.12286 19.3074 3.22153 19.4438 3.32686 19.5743C3.43208 19.7048 3.54399 19.8298 3.66215 19.9487C3.7805 20.0679 3.90531 20.1813 4.03685 20.2891C4.16995 20.3981 4.30829 20.5005 4.4514 20.596C4.58422 20.6848 4.71563 20.7661 4.848 20.8407C4.98038 20.9154 5.1139 20.9831 5.25115 21.0447C5.38839 21.1063 5.52909 21.1617 5.67607 21.2115C5.82305 21.2614 5.97619 21.3057 6.13803 21.3451C6.29988 21.3844 6.47121 21.4189 6.65253 21.449C6.83386 21.4792 7.02768 21.505 7.23476 21.5272C7.44184 21.5494 7.66276 21.5678 7.90015 21.5832C8.13753 21.5986 8.39126 21.6109 8.66389 21.6208C9.08503 21.636 9.72255 21.6449 10.4577 21.6483L12.8377 21.6435L15.0914 21.6119L15.9483 21.5878L16.5065 21.5591C16.6263 21.5494 16.7436 21.5378 16.8567 21.5243C16.9699 21.5108 17.0815 21.4954 17.1902 21.4778C17.2988 21.4603 17.4051 21.4406 17.5094 21.4189C17.6126 21.3974 17.7152 21.3734 17.8172 21.3469C17.9182 21.3213 18.0178 21.2921 18.1163 21.2612C18.2149 21.2302 18.3124 21.1968 18.4093 21.1609C18.5068 21.1248 18.6034 21.0863 18.6991 21.0455C18.7954 21.0045 18.8915 20.9607 18.988 20.9142C19.1362 20.8428 19.2555 20.7833 19.3603 20.7252C19.4588 20.6711 19.5537 20.6106 19.6444 20.5442C19.7338 20.4783 19.8228 20.4034 19.9253 20.3089C20.0278 20.2145 20.144 20.1007 20.2878 19.9568C20.4142 19.8304 20.5208 19.7206 20.6128 19.6207C20.7047 19.5208 20.7822 19.431 20.8501 19.3443C20.9148 19.2621 20.9752 19.1765 21.0308 19.0879C21.085 19.0014 21.135 18.9116 21.186 18.812C21.2626 18.662 21.3308 18.5232 21.3918 18.3892C21.4511 18.2601 21.5053 18.1287 21.5542 17.9953C21.6024 17.863 21.6441 17.7283 21.6792 17.592C21.7153 17.4516 21.7465 17.3035 21.7734 17.141C21.8003 16.9785 21.823 16.8017 21.8428 16.6042C21.8625 16.4067 21.8793 16.1885 21.894 15.9433L21.9331 15.1202L21.9667 14.0965L21.9906 12.956L21.9999 11.7635L21.9785 9.42134L21.9498 8.37229L21.9107 7.47156L21.8621 6.76933C21.8444 6.57391 21.8253 6.42001 21.805 6.31596C21.7826 6.20099 21.7576 6.08654 21.7299 5.97272C21.703 5.86197 21.6734 5.75188 21.6412 5.64256C21.6098 5.53605 21.5756 5.43036 21.5388 5.32559C21.5024 5.22212 21.4638 5.12082 21.4235 5.0217C21.3831 4.92258 21.3394 4.82577 21.2939 4.731C21.2484 4.63624 21.2008 4.54378 21.1507 4.45344C21.1007 4.3631 21.0485 4.275 20.994 4.18908C20.9395 4.10316 20.8827 4.01942 20.8236 3.93792C20.7648 3.85668 20.7034 3.7773 20.6397 3.69989C20.5762 3.62291 20.5104 3.54795 20.4422 3.47513C20.3741 3.40239 20.3038 3.33184 20.2312 3.26356C20.1586 3.19526 20.0839 3.12913 20.0067 3.06519C19.9293 3.00104 19.8499 2.9393 19.7686 2.88009C19.6865 2.82026 19.6026 2.76296 19.5169 2.70825C19.4302 2.65276 19.3417 2.59985 19.2518 2.5496C19.1603 2.49851 19.0674 2.45005 18.9731 2.40429C18.8166 2.32823 18.672 2.26077 18.5299 2.20092C18.3903 2.14153 18.2479 2.08878 18.1033 2.04286C17.9579 1.99704 17.8065 1.95777 17.6399 1.92387C17.4733 1.88998 17.2917 1.86172 17.086 1.8377C16.8804 1.81367 16.6509 1.79426 16.3883 1.77811C16.1257 1.76196 15.8304 1.74928 15.4932 1.73902L14.3472 1.7134L12.8968 1.69629L11.0395 1.68488L11.0389 1.68476ZM12.0035 3.44687L14.6819 3.46212L15.6923 3.4816C15.9706 3.48941 16.1829 3.49858 16.3074 3.50915C16.4695 3.52279 16.6239 3.5399 16.7716 3.5604C16.9133 3.57998 17.0544 3.60432 17.1945 3.63338C17.329 3.66157 17.4573 3.69361 17.5802 3.72975C17.703 3.76588 17.8203 3.80638 17.9329 3.85116C18.0455 3.89595 18.1531 3.94522 18.2567 3.99917C18.3595 4.05271 18.4594 4.11163 18.5559 4.17569C18.652 4.23944 18.7447 4.30813 18.8346 4.38213C18.9246 4.45613 19.0118 4.53545 19.097 4.62029C19.1868 4.7098 19.2698 4.80097 19.3462 4.89503C19.4223 4.9885 19.4928 5.08648 19.5572 5.18841C19.6223 5.29181 19.681 5.39912 19.7329 5.50974C19.7859 5.6225 19.8336 5.74168 19.8764 5.86835C19.9192 5.99502 19.9573 6.12963 19.9911 6.27348C20.0264 6.42598 20.0561 6.57975 20.0799 6.73448C20.1055 6.8985 20.1274 7.07342 20.146 7.2607C20.1646 7.44798 20.18 7.6477 20.1927 7.86138C20.2028 8.03277 20.2116 8.25895 20.2191 8.52606L20.2379 9.43685L20.2522 11.6678L20.2359 13.8967L20.2163 14.8049L20.1893 15.4654C20.1706 15.7747 20.1509 16.0347 20.1273 16.261C20.1154 16.3741 20.1026 16.4788 20.0884 16.5771C20.0751 16.6698 20.0593 16.7623 20.0411 16.8542C20.0244 16.9381 20.0051 17.0215 19.9831 17.1041C19.962 17.183 19.9383 17.2611 19.912 17.3384C19.8855 17.4161 19.8567 17.4929 19.8256 17.5688C19.7927 17.649 19.758 17.7284 19.7215 17.807C19.689 17.8771 19.6548 17.9454 19.6187 18.0118C19.583 18.0776 19.545 18.1421 19.5049 18.2053C19.4652 18.2679 19.4235 18.3287 19.38 18.3876C19.3366 18.4463 19.2912 18.5034 19.2437 18.5588C19.1964 18.614 19.1471 18.6674 19.0959 18.719C19.0447 18.7706 18.9915 18.8203 18.9364 18.8684C18.8813 18.9165 18.8241 18.9626 18.765 19.0071C18.7059 19.0515 18.6447 19.0942 18.5814 19.1351C18.5182 19.176 18.453 19.2152 18.3856 19.2526C18.3183 19.29 18.2488 19.3258 18.1774 19.3598C18.1047 19.3943 18.031 19.4267 17.9564 19.4568C17.8793 19.4879 17.8013 19.5168 17.7225 19.5436C17.5624 19.5982 17.3934 19.6461 17.2155 19.6874C17.0302 19.7302 16.8431 19.7653 16.6548 19.7924C16.5824 19.803 16.416 19.8129 16.1776 19.8221L15.2693 19.8474L12.6943 19.8808L9.99902 19.885L8.94055 19.8738L8.25325 19.8524L7.74644 19.8167C7.58908 19.8035 7.44273 19.7887 7.30562 19.772C7.16851 19.7553 7.04081 19.7366 6.92067 19.7156C6.80683 19.6959 6.69368 19.6724 6.58141 19.6452C6.47905 19.6202 6.37773 19.5912 6.27771 19.5581C6.18128 19.5261 6.08908 19.4909 5.99938 19.4521C5.90968 19.4133 5.82254 19.3709 5.73624 19.3245C5.64993 19.2781 5.56452 19.2277 5.47815 19.1728C5.41299 19.1314 5.35001 19.0895 5.2894 19.0451C5.22878 19.0007 5.17022 18.9564 5.11384 18.9101C5.05745 18.8637 5.00331 18.8159 4.95109 18.7667C4.89922 18.7177 4.84913 18.6669 4.80091 18.6143C4.75286 18.5619 4.70692 18.5079 4.66283 18.4521C4.61858 18.396 4.57641 18.3383 4.53642 18.2791C4.49583 18.219 4.45743 18.1574 4.42128 18.0945C4.38476 18.0311 4.35003 17.9655 4.31704 17.8978C4.28349 17.8289 4.25218 17.7589 4.22317 17.6879C4.1937 17.6156 4.16576 17.541 4.13949 17.464C4.08695 17.3099 4.04082 17.1459 4.00071 16.971C3.9606 16.7961 3.92639 16.6102 3.89743 16.4123C3.86847 16.2143 3.84514 16.0044 3.82656 15.7813C3.81285 15.6169 3.80196 15.361 3.79363 15.038L3.7762 13.8895L3.78261 10.9618L3.83304 8.16412L3.87148 7.17843L3.89326 6.85263C3.90082 6.76562 3.90864 6.70116 3.91665 6.66246C3.94305 6.53515 3.96964 6.41668 3.99712 6.30577C4.0228 6.20114 4.05137 6.09724 4.08279 5.99419C4.11265 5.89693 4.14411 5.80581 4.17774 5.71951C4.21018 5.6359 4.24633 5.55379 4.28609 5.47341C4.32492 5.39524 4.36663 5.3204 4.41193 5.24755C4.45723 5.1747 4.50611 5.10403 4.55942 5.03374C4.61273 4.96346 4.67014 4.89407 4.73261 4.82372C4.79508 4.75336 4.86255 4.68231 4.93572 4.60907C5.02099 4.52331 5.10979 4.44112 5.20187 4.36272C5.28882 4.28874 5.3795 4.21926 5.47354 4.15455C5.566 4.09047 5.66082 4.03345 5.75956 3.98104C5.85829 3.92863 5.96094 3.88128 6.0689 3.83867C6.17686 3.79606 6.29027 3.75794 6.4104 3.72334C6.53661 3.68794 6.66422 3.65773 6.79291 3.63281C6.92823 3.60628 7.07195 3.58315 7.2254 3.56297C7.37885 3.54278 7.54211 3.52536 7.71664 3.51024C7.83838 3.49973 8.04815 3.49037 8.32437 3.48249L9.32966 3.46263L12.0039 3.44629L12.0035 3.44687Z"
            fill="#93939B" />
    </g>
    <defs>
        <clipPath id="clip0_278_2502">
            <rect width="20" height="20" fill="white" transform="translate(2 1.6665)" />
        </clipPath>
    </defs>
</svg>