<svg width="20" height="20" viewBox="0 0 20 20" fill="none" xmlns="http://www.w3.org/2000/svg">
    <path d="M19.375 6.70313C19.375 5.98125 19.0625 5.3 18.5125 4.83125L16.45 3.0625C16.0031 2.67813 15.4344 2.46875 14.8438 2.46875H5.15625C4.56875 2.46875 3.99687 2.67813 3.55 3.0625L1.4875 4.83125C0.9375 5.3 0.625 5.98125 0.625 6.70313V15.0656C0.625 16.425 1.73125 17.5312 3.09063 17.5312H16.9062C17.5656 17.5312 18.1844 17.275 18.65 16.8094C19.1187 16.3438 19.375 15.725 19.375 15.0656V6.70313ZM4.3625 4.00937C4.58437 3.82187 4.86562 3.71563 5.15312 3.71563H14.8438C15.1344 3.71563 15.4156 3.81875 15.6344 4.00937L17.0563 5.22813H2.94062L4.3625 4.00937ZM17.7687 15.925C17.5375 16.1562 17.2344 16.2812 16.9094 16.2812H3.09375C2.42187 16.2812 1.875 15.7375 1.875 15.0656V6.70313C1.875 6.62813 1.88437 6.55312 1.9 6.48125H18.1C18.1125 6.55312 18.125 6.62813 18.125 6.70313V15.0656C18.125 15.3906 18 15.6969 17.7687 15.925Z" fill="#C3C3C3"/>
    <path d="M12.5 8.1251H11.7688C11.8281 8.06572 11.8875 8.00635 11.9531 7.94072C12.1969 7.69697 12.1969 7.3001 11.9531 7.05635C11.7094 6.8126 11.3125 6.8126 11.0687 7.05635C11.0687 7.05635 9.91563 8.20947 9.82812 8.29697C9.825 8.3001 9.82188 8.30322 9.81875 8.30635L9.81563 8.30947C9.70312 8.42197 9.63438 8.57822 9.63438 8.7501C9.63438 8.92197 9.70312 9.0751 9.81563 9.19072L9.81875 9.19385C9.82188 9.19697 9.825 9.2001 9.82812 9.20322C9.91563 9.2876 11.0687 10.4438 11.0687 10.4438C11.1906 10.5657 11.35 10.6282 11.5125 10.6282C11.6719 10.6282 11.8313 10.5688 11.9531 10.447C12.1969 10.2032 12.1969 9.80635 11.9531 9.5626C11.8875 9.49697 11.8281 9.4376 11.7688 9.37822H12.5C13.5344 9.37822 14.375 10.2188 14.375 11.2532C14.375 11.7532 14.1812 12.2251 13.8281 12.5782C13.4719 12.9313 13 13.1251 12.5 13.1251H10.8875C10.5437 13.1251 10.2625 13.4063 10.2625 13.7501C10.2625 14.0938 10.5437 14.3751 10.8875 14.3751H12.5C13.3313 14.3751 14.1156 14.0501 14.7125 13.4595C15.3 12.8657 15.625 12.0813 15.625 11.2501C15.625 9.52822 14.2219 8.1251 12.5 8.1251ZM9.925 14.0407C9.93125 14.0251 9.94063 14.0126 9.95 13.997C9.95937 13.972 9.96875 13.9438 9.975 13.9188C9.97813 13.9063 9.98437 13.8938 9.9875 13.8782C9.99687 13.8376 10 13.7938 10 13.7501C10 13.7063 9.99687 13.6626 9.9875 13.622C9.98437 13.6063 9.97813 13.5938 9.975 13.5813C9.96875 13.5563 9.95937 13.5282 9.95 13.5032C9.94375 13.4876 9.93438 13.4751 9.925 13.4595C9.9125 13.4376 9.90312 13.4157 9.89062 13.397C9.88125 13.3813 9.86875 13.3688 9.85625 13.3563C9.84063 13.3376 9.82812 13.3188 9.8125 13.3032C9.80937 13.3032 9.80937 13.3001 9.80937 13.297C9.725 13.2126 8.56875 12.0563 8.56875 12.0563C8.325 11.8126 7.92813 11.8126 7.68438 12.0563C7.44062 12.3001 7.44062 12.697 7.68438 12.9407C7.75 13.0063 7.80938 13.0657 7.86875 13.1251H7.5C6.46563 13.1251 5.625 12.2845 5.625 11.2501C5.625 10.7501 5.81875 10.2782 6.17188 9.9251C6.52813 9.56885 7 9.3751 7.5 9.3751H8.75C9.09375 9.3751 9.375 9.09385 9.375 8.7501C9.375 8.40635 9.09375 8.1251 8.75 8.1251H7.5C6.66875 8.1251 5.88437 8.4501 5.2875 9.04072C4.7 9.63447 4.375 10.4188 4.375 11.2501C4.375 12.972 5.77812 14.3751 7.5 14.3751H7.86562C7.80625 14.4345 7.74688 14.4938 7.68125 14.5595C7.4375 14.8032 7.4375 15.2001 7.68125 15.4438C7.80625 15.5657 7.96563 15.6251 8.125 15.6251C8.28437 15.6251 8.44375 15.5626 8.56875 15.4407C8.56875 15.4407 9.725 14.2845 9.80937 14.2001C9.8125 14.2001 9.8125 14.197 9.8125 14.1938C9.82812 14.1782 9.84375 14.1595 9.85625 14.1407C9.86875 14.1282 9.87812 14.1157 9.89062 14.1001C9.90312 14.0845 9.91563 14.0626 9.925 14.0407Z" fill="#C3C3C3"/>
    </svg>
    