<svg width="200" height="32" viewBox="0 0 200 32" fill="none" xmlns="http://www.w3.org/2000/svg">
<g clip-path="url(#clip0_761_14857)">
<path d="M24.5864 22.8567H8.73449L7.4083 20.573L6.08495 18.2865H0.800049L2.12057 20.573L3.44392 22.8567L4.76727 25.1432L6.08779 27.4298L7.4083 29.7135L8.73449 32H14.0137L12.7017 29.7135L11.3812 27.4298H27.2501L25.9069 25.1432L24.5864 22.8567Z" fill="white"/>
<path d="M36.4795 16L35.159 13.7135L33.8357 16L32.5151 18.2865L31.1946 16L29.8713 13.7135L28.5508 11.4298L27.2302 9.14324L25.9069 6.85671L24.5864 4.57019L23.2659 6.85671L21.9425 9.14324L23.2659 11.4298L24.5864 13.7135L25.9069 16L27.2302 18.2865L28.5508 20.573L29.8713 22.8567L28.5508 25.1432L27.2302 27.4298L28.5508 29.7134L29.8713 32L31.1946 29.7134L32.5151 27.4298L33.8357 25.1432L35.159 22.8567L36.4795 20.573L37.8001 18.2865L36.4795 16Z" fill="white"/>
<path d="M11.3726 18.2865L12.7017 16L14.0222 13.7135L15.3455 11.4298L16.6689 9.14326L17.9894 6.85674L19.3128 4.57022H24.5863L25.9068 2.28652L27.2302 0H11.3613L10.0493 2.28652L8.73444 4.57022H14.0137L12.7017 6.85674L11.3811 9.14326L10.0578 11.4298L8.73444 13.7135L7.41393 16L6.09058 18.2865H11.3726Z" fill="white"/>
</g>
<path d="M55.5354 6.49377V26.4938H51.4242V6.49377H55.5354ZM61.6952 6.49377V9.7218H45.3606V6.49377H61.6952Z" fill="white"/>
<path d="M64.0464 6.49377H71.5125C73.0433 6.49377 74.3587 6.72271 75.4587 7.18059C76.5678 7.63846 77.4203 8.31612 78.0161 9.21355C78.6119 10.111 78.9098 11.2145 78.9098 12.524C78.9098 13.5954 78.7265 14.5158 78.3598 15.285C78.0023 16.0451 77.4936 16.6815 76.8336 17.1943C76.1828 17.698 75.4174 18.1009 74.5374 18.4031L73.2312 19.0899H66.7414L66.7139 15.8756H71.54C72.2641 15.8756 72.8645 15.7474 73.3412 15.491C73.8179 15.2346 74.1754 14.8775 74.4137 14.4196C74.6612 13.9617 74.7849 13.4306 74.7849 12.8262C74.7849 12.1852 74.6658 11.6311 74.4274 11.1641C74.1891 10.6971 73.827 10.3399 73.3412 10.0927C72.8554 9.84542 72.2458 9.7218 71.5125 9.7218H68.1713V26.4938H64.0464V6.49377ZM75.2387 26.4938L70.6738 17.5789L75.0324 17.5515L79.6523 26.3015V26.4938H75.2387Z" fill="white"/>
<path d="M86.4722 6.49377V26.4938H82.361V6.49377H86.4722Z" fill="white"/>
<path d="M95.1792 26.4938H90.9993L91.0268 24.3372H95.1792C96.6092 24.3372 97.8008 24.0396 98.7542 23.4443C99.7075 22.8399 100.422 21.9974 100.899 20.9169C101.385 19.8271 101.628 18.5542 101.628 17.0982V15.8756C101.628 14.731 101.49 13.7145 101.215 12.8262C100.94 11.9288 100.537 11.1733 100.005 10.5597C99.4737 9.937 98.8229 9.46539 98.0529 9.14487C97.2921 8.82436 96.4167 8.6641 95.4267 8.6641H90.9168V6.49377H95.4267C96.7375 6.49377 97.9338 6.71355 99.0154 7.15312C100.097 7.58352 101.027 8.21081 101.807 9.03498C102.595 9.85 103.2 10.839 103.622 12.002C104.043 13.1559 104.254 14.4562 104.254 15.9031V17.0982C104.254 18.5451 104.043 19.85 103.622 21.013C103.2 22.1669 102.59 23.1513 101.793 23.9663C101.005 24.7813 100.051 25.4086 98.9329 25.8482C97.8238 26.2786 96.5725 26.4938 95.1792 26.4938ZM92.4156 6.49377V26.4938H89.7619V6.49377H92.4156Z" fill="white"/>
<path d="M120.96 24.3372V26.4938H110.359V24.3372H120.96ZM110.895 6.49377V26.4938H108.241V6.49377H110.895ZM119.557 15.0927V17.2493H110.359V15.0927H119.557ZM120.822 6.49377V8.6641H110.359V6.49377H120.822Z" fill="white"/>
<path d="M139.646 6.49377V26.4938H136.978L126.9 11.068V26.4938H124.246V6.49377H126.9L137.02 21.9608V6.49377H139.646Z" fill="white"/>
<path d="M151.333 6.49377V26.4938H148.721V6.49377H151.333ZM157.768 6.49377V8.6641H142.299V6.49377H157.768Z" fill="white"/>
<path d="M163.584 6.49377V26.4938H160.93V6.49377H163.584Z" fill="white"/>
<path d="M175.395 6.49377V26.4938H172.782V6.49377H175.395ZM181.83 6.49377V8.6641H166.361V6.49377H181.83Z" fill="white"/>
<path d="M185.941 6.49377L191.138 16.535L196.349 6.49377H199.361L192.458 19.0212V26.4938H189.805V19.0212L182.902 6.49377H185.941Z" fill="white"/>
<defs>
<clipPath id="clip0_761_14857">
<rect width="37" height="32" fill="white" transform="translate(0.800049)"/>
</clipPath>
</defs>
</svg>
