<?xml version="1.0" encoding="UTF-8"?>
<svg xmlns="http://www.w3.org/2000/svg" xmlns:xlink="http://www.w3.org/1999/xlink" width="200px" height="47px" viewBox="0 0 201 47" version="1.1">
<defs>
<clipPath id="clip1">
  <path d="M 0.792969 38 L 31 38 L 31 43.746094 L 0.792969 43.746094 Z M 0.792969 38 "/>
</clipPath>
<clipPath id="clip2">
  <path d="M 26 15 L 46 15 L 46 43.746094 L 26 43.746094 Z M 26 15 "/>
</clipPath>
</defs>
<g id="surface1">
<path style=" stroke:none;fill-rule:nonzero;fill:rgb(100%,100%,100%);fill-opacity:1;" d="M 22.394531 13.109375 C 24.058594 10.328125 24.441406 6.375 22.640625 5.289062 C 20.84375 4.207031 17.542969 6.402344 15.878906 9.179688 C 14.476562 11.523438 14.691406 13.535156 15.871094 14.757812 L 6.703125 28.640625 C 6.179688 29.445312 6.421875 30.523438 7.242188 31.015625 C 8.058594 31.507812 9.121094 31.21875 9.582031 30.378906 L 17.492188 15.734375 C 19.125 16.203125 20.992188 15.453125 22.394531 13.109375 Z M 8.050781 29.664062 C 7.824219 29.527344 7.75 29.226562 7.886719 29 C 8.023438 28.769531 8.320312 28.695312 8.546875 28.832031 C 8.773438 28.96875 8.847656 29.269531 8.710938 29.496094 C 8.574219 29.730469 8.277344 29.800781 8.050781 29.664062 Z M 8.050781 29.664062 "/>
<g clip-path="url(#clip1)" clip-rule="nonzero">
<path style=" stroke:none;fill-rule:nonzero;fill:rgb(100%,100%,100%);fill-opacity:1;" d="M 16.492188 39.492188 L 0.792969 39.492188 C 1.203125 40.644531 1.957031 41.640625 2.949219 42.34375 C 3.945312 43.046875 5.132812 43.425781 6.347656 43.425781 L 15.558594 43.425781 C 16.074219 43.425781 16.492188 43.003906 16.492188 42.484375 L 16.492188 41.757812 L 28.945312 42.3125 C 29.171875 42.320312 29.398438 42.285156 29.609375 42.203125 C 29.824219 42.125 30.015625 42 30.179688 41.84375 C 30.34375 41.6875 30.472656 41.496094 30.5625 41.289062 C 30.652344 41.078125 30.699219 40.851562 30.699219 40.625 C 30.699219 39.664062 29.898438 38.902344 28.945312 38.941406 Z M 29.125 40.59375 C 29.125 40.859375 28.90625 41.078125 28.640625 41.078125 C 28.378906 41.078125 28.160156 40.859375 28.160156 40.59375 C 28.160156 40.324219 28.378906 40.109375 28.640625 40.109375 C 28.914062 40.109375 29.125 40.324219 29.125 40.59375 Z M 29.125 40.59375 "/>
</g>
<g clip-path="url(#clip2)" clip-rule="nonzero">
<path style=" stroke:none;fill-rule:nonzero;fill:rgb(100%,100%,100%);fill-opacity:1;" d="M 40.371094 43.265625 C 40.664062 43.011719 40.710938 42.570312 40.507812 42.230469 L 37.800781 37.714844 C 37.703125 37.546875 37.671875 37.347656 37.71875 37.15625 C 37.765625 36.96875 37.886719 36.804688 38.054688 36.703125 C 38.21875 36.601562 38.417969 36.574219 38.609375 36.621094 C 38.796875 36.667969 38.960938 36.789062 39.058594 36.957031 L 41.765625 41.472656 C 41.964844 41.804688 42.378906 41.980469 42.738281 41.835938 C 43.195312 41.652344 43.363281 41.117188 43.117188 40.707031 L 40.394531 36.15625 C 40.34375 36.074219 40.3125 35.980469 40.296875 35.886719 C 40.28125 35.792969 40.289062 35.695312 40.3125 35.601562 C 40.332031 35.507812 40.375 35.417969 40.433594 35.339844 C 40.488281 35.261719 40.5625 35.195312 40.644531 35.148438 C 40.726562 35.097656 40.816406 35.0625 40.914062 35.050781 C 41.007812 35.035156 41.105469 35.039062 41.199219 35.0625 C 41.292969 35.085938 41.378906 35.128906 41.457031 35.1875 C 41.535156 35.242188 41.601562 35.316406 41.652344 35.398438 L 44.351562 39.914062 C 44.550781 40.246094 44.964844 40.417969 45.324219 40.277344 C 45.78125 40.089844 45.949219 39.554688 45.707031 39.148438 L 42.605469 33.964844 C 41.199219 31.621094 39.332031 30.867188 37.703125 31.339844 L 29.835938 16.78125 C 29.386719 15.949219 28.34375 15.570312 27.515625 16.019531 C 26.640625 16.492188 26.371094 17.613281 26.910156 18.429688 L 36.082031 32.320312 C 34.898438 33.539062 34.683594 35.550781 36.085938 37.894531 L 39.191406 43.078125 C 39.441406 43.480469 39.992188 43.582031 40.371094 43.265625 Z M 28.257812 17.402344 C 28.488281 17.265625 28.785156 17.339844 28.921875 17.570312 C 29.058594 17.796875 28.984375 18.097656 28.757812 18.234375 C 28.527344 18.371094 28.230469 18.296875 28.09375 18.066406 C 27.957031 17.835938 28.03125 17.539062 28.257812 17.402344 Z M 28.257812 17.402344 "/>
</g>
<path style=" stroke:none;fill-rule:nonzero;fill:rgb(100%,100%,100%);fill-opacity:1;" d="M 59.578125 39.046875 L 59.578125 18.09375 L 52.769531 18.09375 L 52.769531 14.488281 L 70.972656 14.488281 L 70.972656 18.09375 L 64.164062 18.09375 L 64.164062 39.046875 Z M 74.636719 39.046875 L 74.636719 14.488281 L 82.847656 14.488281 C 88.222656 14.488281 91.984375 16.6875 91.984375 21.703125 L 91.984375 21.839844 C 91.984375 25.683594 89.589844 27.644531 86.542969 28.433594 L 93.421875 39.046875 L 88.496094 39.046875 L 82.097656 29.121094 L 79.1875 29.121094 L 79.1875 39.046875 Z M 79.1875 25.855469 L 82.847656 25.855469 C 85.894531 25.855469 87.503906 24.550781 87.503906 21.941406 L 87.503906 21.804688 C 87.503906 18.988281 85.757812 18.027344 82.847656 18.027344 L 79.1875 18.027344 Z M 97.195312 39.046875 L 97.195312 14.488281 L 101.78125 14.488281 L 101.78125 39.046875 Z M 107.894531 39.046875 L 107.894531 14.488281 L 121.824219 14.488281 L 121.824219 16.070312 L 109.8125 16.070312 L 109.8125 25.824219 L 119.257812 25.824219 L 119.257812 27.402344 L 109.8125 27.402344 L 109.8125 39.046875 Z M 136.515625 37.707031 C 142.367188 37.707031 146.371094 33.105469 146.371094 26.820312 L 146.371094 26.542969 C 146.371094 20.566406 142.4375 15.792969 136.449219 15.792969 C 130.460938 15.792969 126.492188 20.429688 126.492188 26.613281 L 126.492188 26.886719 C 126.492188 33.136719 130.835938 37.707031 136.515625 37.707031 Z M 136.515625 39.320312 C 129.535156 39.320312 124.539062 33.792969 124.539062 26.921875 L 124.539062 26.648438 C 124.539062 19.675781 129.570312 14.214844 136.449219 14.214844 C 143.359375 14.214844 148.355469 19.675781 148.355469 26.578125 L 148.355469 26.851562 C 148.355469 33.792969 143.359375 39.320312 136.515625 39.320312 Z M 163.921875 37.707031 C 169.773438 37.707031 173.777344 33.105469 173.777344 26.820312 L 173.777344 26.542969 C 173.777344 20.566406 169.839844 15.792969 163.851562 15.792969 C 157.863281 15.792969 153.894531 20.429688 153.894531 26.613281 L 153.894531 26.886719 C 153.894531 33.136719 158.238281 37.707031 163.921875 37.707031 Z M 163.921875 39.320312 C 156.9375 39.320312 151.941406 33.792969 151.941406 26.921875 L 151.941406 26.648438 C 151.941406 19.675781 156.972656 14.214844 163.851562 14.214844 C 170.765625 14.214844 175.761719 19.675781 175.761719 26.578125 L 175.761719 26.851562 C 175.761719 33.792969 170.765625 39.320312 163.921875 39.320312 Z M 182.597656 37.464844 L 186.910156 37.464844 C 193.855469 37.464844 197.242188 33.070312 197.242188 26.820312 L 197.242188 26.542969 C 197.242188 20.5 194.058594 16.070312 186.875 16.070312 L 182.597656 16.070312 Z M 180.679688 39.046875 L 180.679688 14.488281 L 187.046875 14.488281 C 195.121094 14.488281 199.226562 19.710938 199.226562 26.542969 L 199.226562 26.851562 C 199.226562 33.652344 195.328125 39.046875 186.976562 39.046875 Z M 180.679688 39.046875 "/>
</g>
</svg>
