<svg width="20" height="24" viewBox="0 0 20 24" fill="none" xmlns="http://www.w3.org/2000/svg">
<path d="M9.75691 21.4701C7.17162 21.4701 4.58632 21.0596 2.13417 20.2385C1.20213 19.9167 0.492002 19.2621 0.181322 18.4077C-0.140453 17.5533 -0.0294961 16.6102 0.480906 15.7669L1.75691 13.6476C2.02321 13.2038 2.26731 12.3161 2.26731 11.7946V8.58799C2.26731 4.46039 5.62931 1.09839 9.75691 1.09839C13.8845 1.09839 17.2465 4.46039 17.2465 8.58799V11.7946C17.2465 12.305 17.4906 13.2038 17.7569 13.6587L19.0218 15.7669C19.4989 16.5658 19.5877 17.5311 19.2659 18.4077C18.9442 19.2842 18.2451 19.95 17.3686 20.2385C14.9275 21.0596 12.3422 21.4701 9.75691 21.4701ZM9.75691 2.76274C6.55026 2.76274 3.93167 5.37023 3.93167 8.58799V11.7946C3.93167 12.6046 3.5988 13.803 3.18826 14.502L1.91225 16.6213C1.66815 17.0318 1.60157 17.4645 1.74582 17.8307C1.87896 18.208 2.21184 18.4964 2.66676 18.6518C7.30476 20.2052 12.2202 20.2052 16.8582 18.6518C17.2576 18.5186 17.5683 18.2191 17.7125 17.8196C17.8568 17.4202 17.8235 16.9874 17.6016 16.6213L16.3256 14.502C15.9039 13.7808 15.5822 12.5935 15.5822 11.7835V8.58799C15.5822 5.37023 12.9747 2.76274 9.75691 2.76274Z" fill="white"/>
<path d="M11.8205 3.06241C11.7428 3.06241 11.6652 3.05132 11.5875 3.02913C11.2657 2.94036 10.955 2.87379 10.6555 2.8294C9.71232 2.70735 8.80247 2.77393 7.9481 3.02913C7.63742 3.12899 7.30455 3.02913 7.09373 2.79612C6.88291 2.56311 6.81634 2.23024 6.93839 1.93065C7.39331 0.765604 8.50288 0 9.76779 0C11.0327 0 12.1423 0.754508 12.5972 1.93065C12.7082 2.23024 12.6527 2.56311 12.4419 2.79612C12.2754 2.97365 12.0424 3.06241 11.8205 3.06241Z" fill="white"/>
<path d="M9.75659 24C8.65812 24 7.59293 23.5562 6.81623 22.7795C6.03953 22.0028 5.5957 20.9376 5.5957 19.8391H7.26006C7.26006 20.4938 7.52635 21.1373 7.99237 21.6033C8.45839 22.0693 9.10194 22.3356 9.75659 22.3356C11.1325 22.3356 12.2531 21.215 12.2531 19.8391H13.9175C13.9175 22.1359 12.0534 24 9.75659 24Z" fill="white"/>
</svg>
